<svg xmlns="http://www.w3.org/2000/svg" height="766.3" width="1686.7" viewBox="0 0 1581.3 718.4"><path stroke-linejoin="round" stroke="currentColor" stroke-linecap="round" stroke-width="5" fill="none" d="M290.6 259.2h1000v200h-1000z"/><path stroke-linejoin="round" stroke="currentColor" stroke-linecap="round" stroke-width="5" fill="none" d="M186.2 166.2H1395v385.9H186.2z"/><path stroke-linejoin="round" stroke="currentColor" stroke-linecap="round" stroke-width="5" fill="none" d="M98.7 84.4h1383.8v549.5H98.7z"/><path stroke-linejoin="round" stroke="currentColor" stroke-linecap="round" stroke-width="5.1" fill="none" d="M2.5 2.5h1576.1v713.3H2.6z"/><g fill="currentColor"><path d="M714.4 358.9h7.4q-.1-2.7-1.2-4.6-1.2-2-3-3.2-1.7-1.4-4-2-2.3-.7-4.7-.7-3.4 0-6 1.2-2.6 1-4.4 3.1-1.8 2-2.8 4.8-.9 2.7-.9 5.9 0 3 1 5.7 1 2.5 2.8 4.4 1.9 1.9 4.4 3 2.6 1 5.7 1 5.5 0 9-3 3.5-2.8 4.3-8.3h-7.3q-.4 2.6-1.9 4.1-1.4 1.5-4.1 1.5-1.8 0-3-.8-1.3-.8-2-2-.7-1.3-1-2.8-.3-1.6-.3-3 0-1.6.3-3.2t1-2.9q.9-1.3 2-2 1.3-1 3.1-1 4.9 0 5.6 4.8zM733 363q0-1.7.2-3.3t1.1-2.8q.8-1.2 2-2 1.4-.8 3.3-.8t3.2.8q1.3.8 2 2 .9 1.2 1.2 2.8t.3 3.3-.3 3.3q-.3 1.5-1.1 2.8-.8 1.2-2.1 2-1.3.7-3.2.7-2 0-3.2-.7t-2-2q-.8-1.3-1.2-2.8-.3-1.6-.3-3.3zm-7.7 0q0 3.3 1 6t3 4.6q1.8 1.8 4.4 2.8t5.9 1q3.2 0 5.8-1 2.7-1 4.6-2.8 1.8-2 2.9-4.6t1-6-1-6q-1-2.7-3-4.6-1.8-1.9-4.5-2.9-2.6-1-5.8-1-3.3 0-5.9 1-2.6 1-4.5 3-1.8 1.8-2.8 4.5-1 2.7-1 6zM758.6 349.2v27.6h7.6v-14.5q0-4.2 1.4-6 1.4-1.9 4.5-1.9 2.7 0 3.7 1.7 1.1 1.7 1.1 5.1v15.6h7.6v-17q0-2.5-.5-4.6-.4-2.2-1.5-3.6-1.2-1.5-3.1-2.3-2-.8-5-.8-2.4 0-4.7 1-2.3 1.1-3.7 3.5h-.2v-3.8h-7.2zM800 349.2v-8.3h-7.7v8.3h-4.5v5h4.5v16.3q0 2.1.7 3.4.7 1.3 2 2 1.1.7 2.7.9 1.6.2 3.3.2h2.3q1.2 0 2.2-.2v-5.9l-1.2.2h-1.2q-1.9 0-2.5-.6-.7-.7-.7-2.6v-13.6h5.6v-5.1h-5.6zM827.6 360h-12.3q0-.8.3-1.8t1-2q.8-.8 2-1.4 1.2-.7 3-.7 2.8 0 4.1 1.5 1.4 1.5 2 4.4zm-12.3 4.8h19.9q.2-3.2-.5-6.1-.8-3-2.5-5.3-1.6-2.3-4.3-3.6-2.6-1.4-6-1.4-3.2 0-5.8 1.2-2.6 1-4.5 3-1.8 2-2.9 4.6t-1 5.8q0 3.2 1 5.9 1 2.6 2.8 4.5 1.8 2 4.4 3 2.7 1 6 1 4.6 0 8-2.1 3.2-2.1 4.8-7H828q-.3 1.2-2 2.4-1.6 1-4 1-3.1 0-4.8-1.6t-1.9-5.3zM839.6 349.2v27.6h7.6v-14.5q0-4.2 1.4-6 1.4-1.9 4.5-1.9 2.7 0 3.7 1.7 1.1 1.7 1.1 5.1v15.6h7.6v-17q0-2.5-.5-4.6-.4-2.2-1.5-3.6-1.2-1.5-3.1-2.3-2-.8-5-.8-2.4 0-4.7 1-2.3 1.1-3.7 3.5h-.2v-3.8h-7.2zM881 349.2v-8.3h-7.7v8.3h-4.5v5h4.5v16.3q0 2.1.7 3.4.7 1.3 2 2 1.1.7 2.7.9 1.6.2 3.3.2h2.3q1.2 0 2.2-.2v-5.9l-1.2.2h-1.2q-1.9 0-2.5-.6t-.7-2.6v-13.6h5.6v-5.1h-5.6z"/></g><g fill="currentColor"><path d="M704.5 226.1q-1.8 0-3-.7-1.4-.8-2.2-2-.7-1.2-1-2.8-.4-1.6-.4-3.2 0-1.8.3-3.3.3-1.6 1.1-2.9.8-1.2 2-2 1.3-.7 3.2-.7 1.8 0 3 .8 1.3.7 2 2 .9 1.2 1.2 2.8.4 1.6.4 3.3 0 1.6-.3 3.2t-1.2 2.8q-.7 1.2-2 2-1.2.7-3 .7zm-13.9-22.6v37.2h7.6v-13q1.5 2 3.6 3 2.2 1 4.7 1 3 0 5.3-1.1 2.3-1.2 3.8-3.2 1.6-2 2.3-4.5.7-2.6.7-5.3 0-3-.7-5.6-.7-2.7-2.3-4.8-1.5-2-3.9-3.2-2.3-1.3-5.6-1.3-2.5 0-4.7 1-2.1 1-3.5 3.3h-.1v-3.5h-7.2zM723 212q0-2.7 1.3-4.4 1.1-1.8 3-2.9 1.8-1 4-1.4 2.3-.5 4.6-.5 2 0 4.2.3 2.1.3 3.9 1.1 1.7.9 2.9 2.4 1 1.5 1 4V225q0 1.8.3 3.5t.7 2.6h-7.6l-.4-1.3-.2-1.4q-1.8 1.9-4.2 2.6-2.5.8-5 .8-2 0-3.7-.5-1.7-.5-3-1.5t-2-2.6q-.7-1.5-.7-3.6 0-2.4.8-3.9t2.1-2.4q1.3-1 3-1.4l3.4-.7 3.4-.4 2.9-.5q1.3-.3 2-1 .8-.6.7-1.7 0-1.3-.4-2t-1-1q-.7-.5-1.6-.6-.9-.2-1.9-.2-2.2 0-3.5 1-1.3 1-1.5 3.2h-7.6zm17.4 5.6l-1.2.7-1.6.4-1.7.2-1.8.3-1.7.4q-.8.3-1.4.8-.6.4-1 1-.4.8-.4 1.8t.4 1.8q.4.6 1 1 .7.4 1.5.6l1.8.2q2.2 0 3.4-.8 1.3-.7 1.9-1.7.5-1.1.6-2.2l.2-1.7v-2.8zM773.3 217.2q0 1.7-.3 3.3t-1 2.9q-.8 1.2-2 2-1.3.7-3.2.7-1.7 0-3-.7-1.2-.8-2.1-2-.8-1.3-1.2-3-.3-1.5-.3-3.1 0-1.8.3-3.3.3-1.6 1-2.8.9-1.3 2.2-2t3.1-.7q1.9 0 3.1.7 1.2.7 2 2 .8 1.1 1.1 2.7.3 1.6.3 3.3zm.1 10.3v3.6h7.2V193h-7.5v13.9h-.2q-1.2-2-3.5-3-2.2-1.1-4.6-1.1-3 0-5.3 1.2-2.3 1.1-3.9 3.1-1.5 2-2.3 4.6-.7 2.6-.7 5.3 0 3 .7 5.6.8 2.6 2.3 4.7 1.6 2 4 3.3 2.3 1.2 5.3 1.2 2.8 0 4.9-1 2.2-1 3.5-3.3h.1zM805.8 217.2q0 1.7-.3 3.3t-1 2.9q-.8 1.2-2 2-1.3.7-3.2.7-1.7 0-3-.7-1.2-.8-2.1-2-.8-1.3-1.2-3-.3-1.5-.3-3.1 0-1.8.3-3.3.3-1.6 1-2.8.9-1.3 2.2-2t3.1-.7q1.9 0 3.1.7 1.2.7 2 2 .8 1.1 1.1 2.7.3 1.6.3 3.3zm.1 10.3v3.6h7.2V193h-7.5v13.9h-.2q-1.2-2-3.5-3-2.2-1.1-4.6-1.1-3 0-5.3 1.2-2.3 1.1-3.9 3.1-1.5 2-2.3 4.6-.7 2.6-.7 5.3 0 3 .7 5.6.8 2.6 2.3 4.7 1.6 2 4 3.3 2.3 1.2 5.3 1.2 2.8 0 4.9-1 2.2-1 3.5-3.3h.1zM826.5 199.2V193H819v6.2h7.6zm-7.6 4.3V231h7.6v-27.5H819zM832.4 203.5v27.6h7.6v-14.5q0-4.2 1.4-6 1.4-1.9 4.5-1.9 2.7 0 3.7 1.7 1.1 1.7 1.1 5.1v15.6h7.6v-17q0-2.5-.5-4.6-.4-2.2-1.5-3.6-1.2-1.5-3.1-2.3-2-.8-5-.8-2.4 0-4.7 1-2.3 1.1-3.7 3.5h-.2v-3.8h-7.2zM877 224.5q-1.8 0-3-.7-1.2-.8-2-2-.6-1.1-1-2.6l-.2-3q0-1.5.3-2.9.4-1.4 1.1-2.5.8-1.1 2-1.8 1.1-.6 2.7-.6 1.9 0 3.1.7t2 1.9q.7 1.1 1 2.7.4 1.5.4 3.2 0 1.5-.5 2.9-.3 1.3-1.1 2.4-.8 1-2 1.7t-2.9.6zm13.6 4.7v-25.8h-7.2v3.7h-.1q-1.4-2.4-3.5-3.4-2-1-4.7-1-3 0-5.2 1.1t-3.6 3q-1.5 2-2.3 4.4-.8 2.5-.8 5.1 0 2.9.7 5.4.7 2.5 2 4.5 1.5 1.8 3.8 3 2.2 1 5.3 1 2.5 0 4.7-1 2.3-1 3.6-3.3v3.7q.1 2.9-1.4 4.8-1.4 2-4.6 2-2 0-3.6-1-1.5-.7-2-2.8H864q.2 2.3 1.3 4 1.2 1.7 2.9 2.7 1.7 1 3.8 1.6 2.2.5 4.2.5 4.7 0 7.6-1.3 2.8-1.3 4.3-3.1t1.9-4q.5-2.1.5-3.8z"/></g><g fill="currentColor"><path d="M727.8 130.7q0 1.7-.4 3.3-.3 1.6-1.1 2.8-.8 1.3-2 2t-3 .7q-1.6 0-2.8-.7-1.2-.7-2-2-.8-1.2-1.2-2.8-.4-1.6-.4-3.3 0-1.8.4-3.4.4-1.6 1.2-2.8.8-1.2 2-1.9 1.2-.8 2.9-.8t2.8.8q1.3.7 2 2 .9 1.1 1.2 2.7.4 1.6.4 3.4zm-20.2-24.3v38h7.2V141h.1q1.2 2.3 3.6 3.3t5.5 1q2 0 4-.9 2.1-.9 3.7-2.6 1.7-1.8 2.7-4.5 1-2.8 1-6.6 0-3.7-1-6.5-1-2.7-2.7-4.5-1.6-1.7-3.6-2.6-2-.9-4.1-.9-2.6 0-5 1-2.3 1-3.7 3.2h-.1v-14h-7.6zM747 130.7q0-1.7.2-3.3t1.1-2.8q.8-1.2 2-2 1.4-.8 3.3-.8t3.2.8q1.3.8 2 2 .9 1.2 1.2 2.8t.3 3.3q0 1.7-.3 3.3-.3 1.5-1.1 2.8-.8 1.2-2.1 2-1.3.7-3.2.7t-3.2-.7q-1.3-.8-2-2-.8-1.3-1.2-2.8-.3-1.6-.3-3.3zm-7.7 0q0 3.3 1 6t3 4.6q1.8 1.8 4.4 2.8t5.9 1 5.8-1q2.7-1 4.6-2.8 1.8-2 2.9-4.6 1-2.7 1-6t-1-6q-1-2.7-3-4.6-1.8-1.9-4.5-2.9-2.6-1-5.8-1t-5.9 1q-2.6 1-4.5 3-1.8 1.8-2.8 4.5-1 2.7-1 6zM772.7 116.9v27.6h7.6V132q0-1.8.4-3.4t1.2-2.8q.9-1.2 2.3-2 1.5-.6 3.6-.6l1.4.1q.7 0 1.3.2v-7q-1-.3-1.7-.3-1.4 0-2.8.4t-2.5 1.2q-1.1.8-2 1.9-1 1-1.5 2.3V117h-7.3zM812.2 130.6q0 1.7-.3 3.3t-1 2.9q-.8 1.2-2 2-1.3.7-3.2.7-1.7 0-3-.7-1.2-.8-2.1-2-.8-1.3-1.2-3t-.3-3.1q0-1.8.3-3.3.3-1.6 1-2.8.9-1.3 2.2-2t3.1-.7q1.9 0 3.1.7 1.2.7 2 2 .8 1.1 1.1 2.7.3 1.6.3 3.3zm.1 10.3v3.6h7.2v-38.1H812v13.9h-.2q-1.2-2-3.5-3-2.2-1.1-4.6-1.1-3 0-5.3 1.2-2.3 1.1-3.9 3.1-1.5 2-2.3 4.6-.7 2.6-.7 5.3 0 3 .7 5.6.8 2.6 2.3 4.7 1.6 2 4 3.3 2.3 1.2 5.3 1.2 2.8 0 4.9-1 2.2-1 3.5-3.3h.1zM843.8 127.7h-12.3q0-.8.3-1.8t1-2q.8-.8 2-1.4 1.2-.7 3-.7 2.8 0 4.1 1.5 1.4 1.5 2 4.4zm-12.3 4.8h19.9q.2-3.2-.5-6.1-.8-3-2.5-5.3-1.6-2.3-4.3-3.6-2.6-1.4-6-1.4-3.2 0-5.8 1.1-2.6 1.2-4.5 3.1-1.8 2-2.9 4.6t-1 5.8q0 3.2 1 5.9 1 2.6 2.8 4.5 1.8 2 4.4 3 2.7 1 6 1 4.6 0 8-2.1 3.2-2.1 4.8-7h-6.7q-.3 1.2-2 2.4-1.6 1-4 1-3.1 0-4.8-1.6t-1.9-5.3zM855.8 116.9v27.6h7.6V132q0-1.8.4-3.4t1.2-2.8q.9-1.2 2.3-2 1.5-.6 3.6-.6l1.4.1q.7 0 1.3.2v-7q-1-.3-1.7-.3-1.4 0-2.8.4t-2.5 1.2q-1.1.8-2 1.9-1 1-1.5 2.3V117h-7.3z"/></g><g fill="currentColor"><path d="M705.5 33.8v27.6h7.6v-16q0-2 .6-3.3.6-1.3 1.4-1.9.8-.7 1.7-1l1.4-.2q1.8 0 2.7.7 1 .6 1.4 1.6.4 1 .4 2.2v17.9h7.7V46l.1-2.5q.2-1.3.8-2.2.6-1 1.5-1.6 1-.7 2.6-.7t2.5.6q1 .5 1.5 1.4.5.9.6 2.1v18.3h7.6V42.9q0-2.6-.7-4.5-.8-2-2-3.1-1.4-1.2-3.3-1.7t-4-.5q-3 0-5 1.3-2.1 1.4-3.4 3.2-1-2.5-3.3-3.5-2-1-4.7-1t-4.9 1.1q-2 1.2-3.5 3.3h-.1v-3.7h-7.2zM753.3 42.2q.2-2.7 1.4-4.4 1.1-1.8 3-2.9 1.8-1 4-1.4 2.3-.5 4.6-.5 2 0 4.2.3 2.1.3 3.9 1.1 1.7.9 2.9 2.4 1 1.5 1 4v14.4q0 1.8.3 3.5.2 1.7.7 2.6h-7.6l-.4-1.3-.2-1.4q-1.8 1.9-4.2 2.6-2.5.8-5 .8-2 0-3.7-.5-1.7-.5-3-1.5t-2-2.6q-.7-1.5-.7-3.6 0-2.4.8-3.9t2.1-2.4q1.3-1 3-1.4l3.4-.7 3.4-.4 2.9-.5q1.3-.3 2-1 .8-.6.7-1.7 0-1.3-.4-2t-1-1q-.7-.5-1.6-.6-.9-.2-1.9-.2-2.2 0-3.5 1t-1.5 3.2h-7.6zm17.5 5.6l-1.2.7-1.6.4-1.7.2-1.8.3-1.7.4q-.8.3-1.4.8-.6.4-1 1-.4.8-.4 1.8t.4 1.8q.4.6 1 1 .7.4 1.5.6l1.8.2q2.2 0 3.4-.8 1.3-.7 1.9-1.7.5-1.1.6-2.2l.2-1.7v-2.8zM784.1 33.8v27.6h7.6V48.9q0-1.8.4-3.4.3-1.6 1.2-2.8.9-1.2 2.3-2 1.5-.6 3.6-.6l1.4.1q.7 0 1.3.2v-7q-1-.3-1.7-.3-1.4 0-2.8.4-1.3.4-2.5 1.2-1.1.8-2 1.9-1 1-1.5 2.3v-5.1H784zM816.3 54.8q-1.7 0-3-.7-1-.8-1.8-2-.7-1.1-1-2.6-.3-1.5-.3-3t.3-2.9q.4-1.4 1.1-2.5.8-1.1 2-1.8 1.1-.6 2.7-.6 1.9 0 3.1.7 1.2.7 2 1.9.7 1.1 1 2.7.4 1.5.4 3.2 0 1.5-.5 2.9-.3 1.3-1.1 2.4-.8 1-2 1.7-1.3.6-2.9.6zm13.7 4.7V33.7h-7.2v3.7h-.1q-1.4-2.4-3.5-3.4-2-1-4.7-1-3 0-5.2 1.1t-3.6 3q-1.5 2-2.3 4.4-.8 2.5-.8 5.1 0 2.9.7 5.4.7 2.5 2 4.5 1.5 1.8 3.8 3 2.2 1 5.3 1 2.5 0 4.7-1 2.3-1 3.6-3.3V60q.1 2.9-1.4 4.8-1.4 2-4.6 2-2 0-3.6-1-1.5-.7-2-2.8h-7.6q.2 2.3 1.3 4 1.2 1.7 2.9 2.7 1.7 1 3.8 1.6 2.2.5 4.2.5 4.7 0 7.6-1.3 2.8-1.3 4.3-3.1t1.9-4q.5-2.1.5-3.8zM844 29.5v-6.2h-7.7v6.2h7.6zm-7.7 4.3v27.5h7.6V33.8h-7.6zM849.8 33.8v27.6h7.6V46.9q0-4.2 1.4-6 1.4-1.9 4.5-1.9 2.7 0 3.7 1.7 1.1 1.7 1.1 5.1v15.6h7.6v-17q0-2.5-.5-4.6-.4-2.2-1.5-3.6-1.2-1.5-3.1-2.3-2-.8-5-.8-2.4 0-4.7 1-2.3 1.1-3.7 3.5h-.2v-3.8h-7.2z"/></g></svg>