<?xml version="1.0" encoding="UTF-8" standalone="no"?>
<!DOCTYPE svg PUBLIC "-//W3C//DTD SVG 1.1//EN" "http://www.w3.org/Graphics/SVG/1.1/DTD/svg11.dtd">
<svg xmlns="http://www.w3.org/2000/svg" version="1.1" viewBox="0.00 0.00 954.00 382.00">
<path fill="#896cfa" d="
  M 0.00 0.00
  L 954.00 0.00
  L 954.00 382.00
  L 0.00 382.00
  L 0.00 0.00
  Z"
/>
<g stroke-width="2.00" fill="none" stroke-linecap="butt">
<path stroke="#c4beca" vector-effect="non-scaling-stroke" d="
  M 899.75 264.77
  Q 900.23 259.57 901.17 254.59
  C 901.65 252.00 901.27 248.40 902.75 245.35
  Q 902.95 244.94 902.89 244.48
  Q 902.70 243.01 901.70 242.16
  Q 901.32 241.83 901.30 241.33
  C 900.61 228.59 899.29 215.81 899.35 203.25
  Q 899.52 166.75 899.30 151.00
  Q 899.13 139.59 899.60 132.74
  C 899.72 131.01 899.28 129.46 899.01 127.84
  A 0.52 0.52 0.0 0 0 897.98 127.89
  L 897.31 137.22"
/>
<path stroke="#d1c3ce" vector-effect="non-scaling-stroke" d="
  M 897.31 137.22
  L 897.87 116.47
  Q 897.87 116.30 898.03 116.24
  Q 898.16 116.18 898.30 116.12
  Q 898.60 115.98 898.44 115.69
  Q 897.66 114.22 898.74 113.20
  Q 899.17 112.80 898.91 112.27
  L 895.98 106.26
  Q 895.44 105.15 895.26 106.38
  L 894.89 108.97"
/>
<path stroke="#98949f" vector-effect="non-scaling-stroke" d="
  M 894.89 108.97
  Q 895.46 98.96 886.27 97.94
  Q 879.90 97.23 860.25 97.07
  Q 812.87 96.67 765.50 97.07
  C 735.42 97.33 705.33 96.90 675.25 96.79
  C 668.06 96.77 659.30 99.07 657.53 106.96
  C 656.98 109.41 657.30 113.08 657.11 116.00"
/>
<path stroke="#d1c3ce" vector-effect="non-scaling-stroke" d="
  M 657.11 116.00
  L 657.06 114.78
  Q 657.03 113.99 656.60 114.65
  L 656.28 115.13
  Q 656.12 115.38 655.83 115.38
  L 654.28 115.38
  Q 653.60 115.38 653.65 116.05
  C 653.85 118.84 654.79 121.66 654.83 124.29
  Q 654.95 132.36 655.63 140.50"
/>
<path stroke="#c4beca" vector-effect="non-scaling-stroke" d="
  M 655.63 140.50
  Q 654.17 132.68 654.49 124.44
  C 654.56 122.56 654.17 120.51 653.84 118.80
  A 0.56 0.56 0.0 0 0 652.73 118.92
  Q 653.36 161.05 653.08 201.75
  Q 653.03 208.74 652.24 221.73
  Q 651.42 235.22 651.67 248.76
  Q 651.78 254.44 654.01 259.54
  Q 655.55 263.04 658.64 265.38
  Q 661.70 267.70 665.28 269.20
  Q 667.71 270.22 669.71 271.39
  Q 672.17 272.84 669.33 273.21
  Q 669.07 273.24 667.47 273.06"
/>
<path stroke="#988abf" vector-effect="non-scaling-stroke" d="
  M 667.47 273.06
  Q 655.66 272.32 650.19 261.70"
/>
<path stroke="#a19598" vector-effect="non-scaling-stroke" d="
  M 894.89 108.97
  L 894.53 116.95
  A 1.16 1.15 -88.9 0 1 893.39 118.06
  C 831.98 118.70 770.47 118.17 709.01 118.42
  C 692.75 118.49 675.12 118.08 658.12 118.41
  Q 657.61 118.42 657.34 117.98
  Q 656.80 117.11 657.11 116.00"
/>
<path stroke="#dbd8dd" vector-effect="non-scaling-stroke" d="
  M 656.09 146.23
  Q 655.68 186.24 656.97 216.75
  Q 657.28 224.14 659.40 234.03
  A 1.65 1.61 -75.2 0 0 659.87 234.86
  Q 661.74 236.58 663.74 236.73
  Q 673.77 237.48 687.54 237.30"
/>
<path stroke="#dfdddf" vector-effect="non-scaling-stroke" d="
  M 687.54 237.30
  L 870.78 237.29"
/>
<path stroke="#dbd8dd" vector-effect="non-scaling-stroke" d="
  M 870.78 237.29
  Q 878.99 237.09 881.53 237.34
  Q 893.88 238.53 894.86 226.38
  C 895.45 219.13 896.02 211.95 896.00 204.53
  Q 895.89 172.51 896.21 140.51"
/>
<path stroke="#9487b3" vector-effect="non-scaling-stroke" d="
  M 680.40 273.90
  L 667.47 273.06"
/>
<path stroke="#cdc0c3" vector-effect="non-scaling-stroke" d="
  M 897.31 137.22
  Q 897.17 139.06 896.21 140.51"
/>
<path stroke="#e7dce2" vector-effect="non-scaling-stroke" d="
  M 896.21 140.51
  Q 896.28 139.71 895.01 139.62
  Q 888.55 139.21 882.27 140.02"
/>
<path stroke="#ece1e3" vector-effect="non-scaling-stroke" d="
  M 882.27 140.02
  Q 808.53 139.02 734.75 140.24
  Q 715.31 140.56 672.04 140.01"
/>
<path stroke="#e7dce2" vector-effect="non-scaling-stroke" d="
  M 672.04 140.01
  L 656.96 139.64
  A 0.97 0.96 0.0 0 0 655.97 140.62
  L 656.09 146.23"
/>
<path stroke="#cdc0c3" vector-effect="non-scaling-stroke" d="
  M 656.09 146.23
  L 655.63 140.50"
/>
<path stroke="#a29ea5" vector-effect="non-scaling-stroke" d="
  M 680.55 145.62
  L 674.89 145.48
  A 0.99 0.98 0.6 0 0 673.88 146.46
  L 673.78 228.81
  A 0.74 0.74 0.0 0 0 674.52 229.55
  L 682.54 229.51"
/>
<path stroke="#faf9fe" vector-effect="non-scaling-stroke" d="
  M 882.27 140.02
  Q 882.44 142.88 882.80 145.68
  Q 883.20 148.89 883.20 151.34
  Q 883.25 185.79 883.46 220.25
  C 883.48 223.60 883.47 230.75 881.08 233.36
  Q 880.55 233.94 880.07 236.33
  A 0.64 0.63 -85.3 0 1 879.48 236.84
  L 870.78 237.29"
/>
<path stroke="#faf9fe" vector-effect="non-scaling-stroke" d="
  M 687.54 237.30
  L 672.77 236.78
  Q 672.54 236.78 672.68 236.60
  L 672.88 236.35
  A 0.70 0.69 -34.7 0 0 673.00 235.71
  Q 672.29 233.55 673.78 232.40
  Q 674.22 232.06 673.99 231.56
  Q 673.68 230.86 674.09 230.21
  A 0.97 0.95 -73.9 0 1 674.88 229.76
  L 682.54 229.51"
/>
<path stroke="#a7a3a6" vector-effect="non-scaling-stroke" d="
  M 682.54 229.51
  L 750.44 229.70"
/>
<path stroke="#b3b2b4" vector-effect="non-scaling-stroke" d="
  M 750.44 229.70
  L 755.49 229.63
  A 0.58 0.57 -0.5 0 0 756.06 229.06
  L 756.18 146.19
  Q 756.18 145.50 755.49 145.50
  L 741.18 145.55"
/>
<path stroke="#a7a3a6" vector-effect="non-scaling-stroke" d="
  M 741.18 145.55
  L 680.55 145.62"
/>
<path stroke="#faf9fe" vector-effect="non-scaling-stroke" d="
  M 680.55 145.62
  L 673.66 145.24
  Q 673.16 145.22 672.77 144.91
  Q 668.83 141.82 672.04 140.01"
/>
<path stroke="#5c575b" vector-effect="non-scaling-stroke" d="
  M 750.44 229.70
  Q 750.95 229.34 751.76 229.33
  A 0.48 0.48 0.0 0 0 752.23 228.85
  L 752.24 227.74
  A 0.75 0.75 0.0 0 0 751.48 226.98
  L 677.71 227.48
  A 1.49 1.48 -3.7 0 1 676.23 226.19
  C 675.02 217.13 675.67 208.43 675.94 199.33
  C 676.43 182.64 675.47 165.85 675.27 149.08
  A 1.96 1.96 0.0 0 1 677.57 147.12
  Q 680.13 147.57 683.00 147.59
  Q 717.40 147.79 752.49 147.27
  A 0.46 0.45 -36.8 0 0 752.62 146.38
  Q 752.22 146.26 751.64 146.02
  Q 751.14 145.82 750.58 145.85
  Q 745.84 146.12 741.18 145.55"
/>
<path stroke="#c4beca" vector-effect="non-scaling-stroke" d="
  M 599.10 139.98
  Q 598.43 134.92 598.60 129.79
  Q 598.66 128.09 598.15 126.81
  Q 597.56 125.33 596.88 123.86
  A 0.48 0.48 0.0 0 0 596.11 123.73
  L 595.81 124.03
  Q 595.62 124.22 595.49 123.98
  Q 594.15 121.44 593.91 118.51
  A 1.85 1.82 24.4 0 0 593.53 117.52
  Q 592.75 116.53 592.87 115.31
  Q 592.91 114.86 592.60 114.54
  Q 590.96 112.82 590.72 110.48
  Q 590.66 109.89 590.22 109.50
  Q 586.16 105.92 582.17 102.28
  C 581.08 101.29 579.39 100.85 578.42 99.27
  A 1.40 1.40 0.0 0 0 577.72 98.69
  C 576.48 98.20 575.22 97.54 573.88 97.52
  Q 564.66 97.41 555.52 96.39
  Q 555.33 96.37 551.10 95.38
  Q 549.16 94.92 546.50 94.90
  C 544.32 94.89 541.18 93.83 538.47 93.83
  Q 491.68 93.71 444.90 93.70
  Q 440.12 93.70 432.62 94.24
  Q 426.41 94.69 420.35 94.71
  Q 408.07 94.75 395.80 95.50
  C 393.16 95.67 390.35 96.53 387.70 96.79
  C 379.35 97.59 371.34 101.02 365.89 107.41
  Q 362.62 111.26 362.08 112.98
  C 357.80 126.64 357.58 139.22 358.22 153.52
  Q 358.59 161.92 358.29 169.76
  Q 357.68 185.62 358.16 201.48
  Q 358.32 206.87 357.85 214.49
  Q 357.11 226.60 358.31 239.99
  Q 358.48 241.92 357.04 243.24
  Q 356.70 243.54 356.81 243.99
  Q 357.02 244.90 356.74 245.80"
/>
<path stroke="#9487b3" vector-effect="non-scaling-stroke" d="
  M 416.74 297.25
  C 422.96 295.10 427.12 292.08 430.57 286.10
  Q 435.25 277.98 439.77 269.75
  Q 440.13 269.10 440.13 268.64
  A 0.69 0.68 -89.6 0 0 439.46 267.95
  C 424.48 267.71 409.49 268.25 394.58 267.76
  Q 385.52 267.47 382.24 266.98
  Q 364.12 264.28 356.13 246.10"
/>
<path stroke="#8b85ac" vector-effect="non-scaling-stroke" d="
  M 630.91 156.03
  L 630.89 136.03
  Q 630.89 135.45 630.35 135.24
  Q 628.44 134.48 626.77 135.37
  Q 626.29 135.64 626.26 136.19
  Q 625.77 148.49 626.22 155.20
  Q 626.27 155.99 627.25 156.48"
/>
<path stroke="#c4beca" vector-effect="non-scaling-stroke" d="
  M 58.53 276.64
  Q 59.80 274.03 59.06 270.69
  Q 58.52 268.27 58.77 266.71
  Q 59.36 262.84 60.32 258.95"
/>
<path stroke="#adaab1" vector-effect="non-scaling-stroke" d="
  M 60.32 258.95
  L 60.31 262.72
  Q 60.30 264.11 61.69 264.19
  Q 73.32 264.84 84.94 263.79
  Q 85.15 263.77 85.17 263.56
  Q 85.19 263.25 85.00 263.25
  Q 74.42 263.07 62.10 263.16"
/>
<path stroke="#dfdddf" vector-effect="non-scaling-stroke" d="
  M 62.10 263.16
  L 126.27 262.86
  A 1.73 1.73 0.0 0 0 127.99 261.15
  L 128.34 235.54"
/>
<path stroke="#adaab1" vector-effect="non-scaling-stroke" d="
  M 128.34 235.54
  L 128.56 257.53
  Q 128.56 258.11 128.98 257.70
  Q 129.44 257.24 129.52 256.50
  C 129.93 252.83 130.34 249.22 130.37 245.48
  Q 130.63 214.48 129.77 183.50
  Q 129.74 182.46 129.16 180.61
  Q 129.00 180.08 129.13 179.54
  Q 129.67 177.22 128.74 174.99
  A 0.23 0.23 0.0 0 0 128.30 175.07
  L 128.04 180.73"
/>
<path stroke="#dfdddf" vector-effect="non-scaling-stroke" d="
  M 128.04 180.73
  L 127.70 171.62"
/>
<path stroke="#7d797e" vector-effect="non-scaling-stroke" d="
  M 127.70 171.62
  L 127.22 161.55
  Q 127.15 160.18 125.78 160.18
  L 62.68 160.30"
/>
<path stroke="#c4beca" vector-effect="non-scaling-stroke" d="
  M 62.68 160.30
  Q 62.11 159.33 60.86 157.90
  C 59.25 156.05 58.53 154.13 57.71 151.93
  A 0.52 0.52 0.0 0 0 56.71 152.08
  Q 56.68 152.73 56.11 152.33"
/>
<path stroke="#cccbd2" vector-effect="non-scaling-stroke" d="
  M 62.72 172.26
  L 62.45 172.96
  Q 62.26 173.42 62.26 173.91
  L 62.10 263.16"
/>
<path stroke="#817c8a" vector-effect="non-scaling-stroke" d="
  M 62.68 160.30
  L 62.59 171.38"
/>
<path stroke="#b1adbd" vector-effect="non-scaling-stroke" d="
  M 62.59 171.38
  Q 60.89 173.36 60.89 176.01
  Q 60.88 184.13 60.57 192.25
  Q 60.15 203.63 60.03 215.00
  C 59.89 227.96 60.54 244.29 60.32 258.95"
/>
<path stroke="#9c9b9f" vector-effect="non-scaling-stroke" d="
  M 127.70 171.62
  Q 126.19 172.02 125.00 172.04
  Q 94.88 172.42 64.75 172.20
  Q 63.73 172.20 62.72 172.26"
/>
<path stroke="#696871" vector-effect="non-scaling-stroke" d="
  M 62.72 172.26
  Q 62.29 172.23 62.59 171.38"
/>
<path stroke="#cccbd2" vector-effect="non-scaling-stroke" d="
  M 128.04 180.73
  L 128.34 235.54"
/>
<path stroke="#c4beca" vector-effect="non-scaling-stroke" d="
  M 293.17 281.46
  L 295.93 263.19
  Q 296.01 262.66 295.63 262.29
  C 293.08 259.76 293.73 249.02 293.78 244.00
  C 293.86 235.02 293.46 223.78 293.57 210.45
  Q 293.64 202.64 293.02 194.84
  Q 293.01 194.75 293.07 194.69
  Q 293.09 194.65 293.13 194.62
  Q 293.25 194.49 293.25 194.31
  Q 292.73 183.98 293.10 173.62
  C 293.24 169.60 292.50 166.06 291.83 162.18
  A 1.03 1.02 -80.2 0 0 291.32 161.45
  Q 290.07 160.73 290.09 159.51
  Q 290.17 155.67 290.08 151.84
  Q 290.08 151.75 289.98 151.75
  Q 289.85 151.75 289.72 151.75
  Q 289.70 151.75 289.70 151.77
  L 289.59 155.30"
/>
<path stroke="#8c8591" vector-effect="non-scaling-stroke" d="
  M 289.59 155.30
  L 289.39 150.00
  Q 289.37 149.45 288.86 149.25
  Q 287.42 148.68 286.25 148.68
  C 262.00 148.80 237.74 148.99 213.50 148.45
  Q 206.77 148.30 198.00 148.38
  Q 195.25 148.40 193.18 149.36
  A 0.89 0.88 -14.7 0 0 192.67 150.22
  Q 193.10 156.00 191.99 161.71"
/>
<path stroke="#e3e0ea" vector-effect="non-scaling-stroke" d="
  M 191.99 161.71
  Q 191.48 161.70 191.27 162.13
  Q 191.14 162.41 191.26 162.87
  C 191.52 163.89 191.82 164.64 191.86 165.72
  Q 192.31 177.35 192.16 188.96"
/>
<path stroke="#c4beca" vector-effect="non-scaling-stroke" d="
  M 192.16 188.96
  L 191.52 165.40
  A 0.54 0.54 0.0 0 0 190.65 164.98
  Q 189.81 165.61 189.75 167.27
  Q 189.28 180.86 189.32 189.09
  C 189.34 194.72 187.98 200.28 188.12 205.86
  Q 188.77 230.27 188.44 254.69
  Q 188.40 257.41 187.69 260.99
  Q 186.85 265.25 187.15 267.36
  Q 188.03 273.37 187.31 281.30"
/>
<path stroke="#dfdddf" vector-effect="non-scaling-stroke" d="
  M 192.16 188.96
  L 191.99 259.45
  A 1.21 1.20 -0.0 0 0 193.20 260.65
  L 289.25 260.87
  A 1.36 1.36 0.0 0 0 290.61 259.55
  Q 291.46 231.60 290.76 203.91
  C 290.61 197.67 291.21 191.45 290.97 185.25
  Q 290.53 173.89 290.14 162.53
  C 290.12 161.91 289.86 161.68 289.63 161.14"
/>
<path stroke="#888286" vector-effect="non-scaling-stroke" d="
  M 289.59 155.30
  L 289.63 161.14"
/>
<path stroke="#a7a3a6" vector-effect="non-scaling-stroke" d="
  M 289.63 161.14
  Q 280.38 161.82 271.25 161.71
  C 244.91 161.37 218.51 161.65 191.99 161.71"
/>
<path stroke="#b3a8d4" vector-effect="non-scaling-stroke" d="
  M 630.68 245.30
  Q 630.49 244.13 629.96 243.44
  C 628.77 241.87 626.78 242.84 626.59 244.75
  Q 625.56 255.42 626.24 264.97"
/>
</g>
<path fill="#6752a8" d="
  M 326.88 84.00
  Q 326.14 87.97 326.07 89.87
  A 0.28 0.28 0.0 0 1 325.78 90.14
  Q 325.64 90.14 325.50 90.13
  Q 325.44 90.13 325.41 89.99
  L 324.86 87.79
  Q 324.72 87.23 324.17 87.03
  Q 320.96 85.87 320.86 82.25
  Q 320.62 73.38 320.78 64.50
  C 320.84 61.28 325.21 61.68 326.83 62.77
  A 1.13 1.12 13.9 0 1 327.32 63.57
  Q 328.65 74.47 326.88 84.00
  Z"
/>
<path fill="#180c58" d="
  M 631.63 83.87
  A 1.51 1.51 0.0 0 1 630.09 85.35
  L 628.50 85.31
  A 3.95 3.68 -88.8 0 1 624.90 81.29
  L 625.22 66.05
  A 3.95 3.68 -88.8 0 1 628.98 62.18
  L 630.57 62.21
  A 1.51 1.51 0.0 0 1 632.05 63.75
  L 631.63 83.87
  Z"
/>
<rect fill="#fefeff" x="-2.44" y="-10.92" transform="translate(628.45,73.99) rotate(0.7)" width="4.88" height="21.84" rx="1.78"/>
<path fill="#fefeff" d="
  M 325.34 63.56
  A 0.87 0.87 0.0 0 1 326.20 64.44
  L 326.14 82.26
  A 2.81 1.90 -89.8 0 1 324.23 85.06
  L 323.83 85.06
  A 2.81 1.90 -89.8 0 1 321.94 82.24
  L 322.00 64.42
  A 0.87 0.87 0.0 0 1 322.88 63.56
  L 325.34 63.56
  Z"
/>
<path fill="#fefeff" d="
  M 157.32 63.80
  A 0.69 0.69 0.0 0 1 158.01 64.49
  L 157.99 75.11
  A 9.95 1.32 -89.9 0 1 156.65 85.06
  L 156.11 85.06
  A 9.95 1.32 -89.9 0 1 154.81 75.11
  L 154.83 64.49
  A 0.69 0.69 0.0 0 1 155.52 63.80
  L 157.32 63.80
  Z"
/>
<path fill="#c8c1d5" d="
  M 899.75 264.77
  Q 900.23 259.57 901.17 254.59
  C 901.65 252.00 901.27 248.40 902.75 245.35
  Q 902.95 244.94 902.89 244.48
  Q 902.70 243.01 901.70 242.16
  Q 901.32 241.83 901.30 241.33
  C 900.61 228.59 899.29 215.81 899.35 203.25
  Q 899.52 166.75 899.30 151.00
  Q 899.13 139.59 899.60 132.74
  C 899.72 131.01 899.28 129.46 899.01 127.84
  A 0.52 0.52 0.0 0 0 897.98 127.89
  L 897.31 137.22
  L 897.87 116.47
  Q 897.87 116.30 898.03 116.24
  Q 898.16 116.18 898.30 116.12
  Q 898.60 115.98 898.44 115.69
  Q 897.66 114.22 898.74 113.20
  Q 899.17 112.80 898.91 112.27
  L 895.98 106.26
  Q 895.44 105.15 895.26 106.38
  L 894.89 108.97
  Q 895.46 98.96 886.27 97.94
  Q 879.90 97.23 860.25 97.07
  Q 812.87 96.67 765.50 97.07
  C 735.42 97.33 705.33 96.90 675.25 96.79
  C 668.06 96.77 659.30 99.07 657.53 106.96
  C 656.98 109.41 657.30 113.08 657.11 116.00
  L 657.06 114.78
  Q 657.03 113.99 656.60 114.65
  L 656.28 115.13
  Q 656.12 115.38 655.83 115.38
  L 654.28 115.38
  Q 653.60 115.38 653.65 116.05
  C 653.85 118.84 654.79 121.66 654.83 124.29
  Q 654.95 132.36 655.63 140.50
  Q 654.17 132.68 654.49 124.44
  C 654.56 122.56 654.17 120.51 653.84 118.80
  A 0.56 0.56 0.0 0 0 652.73 118.92
  Q 653.36 161.05 653.08 201.75
  Q 653.03 208.74 652.24 221.73
  Q 651.42 235.22 651.67 248.76
  Q 651.78 254.44 654.01 259.54
  Q 655.55 263.04 658.64 265.38
  Q 661.70 267.70 665.28 269.20
  Q 667.71 270.22 669.71 271.39
  Q 672.17 272.84 669.33 273.21
  Q 669.07 273.24 667.47 273.06
  Q 655.66 272.32 650.19 261.70
  Q 648.75 255.09 648.75 248.25
  Q 648.75 183.39 649.09 165.25
  C 649.44 145.87 647.95 127.23 649.20 107.25
  C 649.49 102.60 650.10 99.23 653.41 95.80
  C 662.07 86.82 673.27 88.40 684.63 88.35
  Q 763.25 88.00 859.25 88.41
  Q 870.56 88.46 879.61 88.72
  Q 889.22 89.00 893.12 90.88
  Q 901.08 94.73 902.65 105.23
  Q 904.02 114.47 903.99 120.50
  Q 903.67 179.04 904.17 205.00
  Q 904.71 233.33 903.65 255.00
  Q 903.39 260.34 899.75 264.77
  Z"
/>
<path fill="#c8c1d5" d="
  M 599.10 139.98
  Q 598.43 134.92 598.60 129.79
  Q 598.66 128.09 598.15 126.81
  Q 597.56 125.33 596.88 123.86
  A 0.48 0.48 0.0 0 0 596.11 123.73
  L 595.81 124.03
  Q 595.62 124.22 595.49 123.98
  Q 594.15 121.44 593.91 118.51
  A 1.85 1.82 24.4 0 0 593.53 117.52
  Q 592.75 116.53 592.87 115.31
  Q 592.91 114.86 592.60 114.54
  Q 590.96 112.82 590.72 110.48
  Q 590.66 109.89 590.22 109.50
  Q 586.16 105.92 582.17 102.28
  C 581.08 101.29 579.39 100.85 578.42 99.27
  A 1.40 1.40 0.0 0 0 577.72 98.69
  C 576.48 98.20 575.22 97.54 573.88 97.52
  Q 564.66 97.41 555.52 96.39
  Q 555.33 96.37 551.10 95.38
  Q 549.16 94.92 546.50 94.90
  C 544.32 94.89 541.18 93.83 538.47 93.83
  Q 491.68 93.71 444.90 93.70
  Q 440.12 93.70 432.62 94.24
  Q 426.41 94.69 420.35 94.71
  Q 408.07 94.75 395.80 95.50
  C 393.16 95.67 390.35 96.53 387.70 96.79
  C 379.35 97.59 371.34 101.02 365.89 107.41
  Q 362.62 111.26 362.08 112.98
  C 357.80 126.64 357.58 139.22 358.22 153.52
  Q 358.59 161.92 358.29 169.76
  Q 357.68 185.62 358.16 201.48
  Q 358.32 206.87 357.85 214.49
  Q 357.11 226.60 358.31 239.99
  Q 358.48 241.92 357.04 243.24
  Q 356.70 243.54 356.81 243.99
  Q 357.02 244.90 356.74 245.80
  Q 355.18 238.51 355.18 230.25
  Q 355.22 186.88 355.13 143.50
  Q 355.10 133.15 355.77 122.83
  Q 356.32 114.29 358.33 109.54
  Q 362.89 98.72 373.85 94.16
  C 381.41 91.02 392.56 91.55 401.00 91.58
  Q 465.54 91.77 530.09 91.76
  C 538.41 91.76 554.70 91.34 567.04 91.76
  Q 574.55 92.02 578.75 93.69
  C 588.36 97.51 596.90 105.90 598.19 116.63
  Q 599.58 128.20 599.10 139.98
  Z"
/>
<path fill="#6752a8" d="
  M 327.31 121.48
  A 1.70 1.69 4.1 0 1 325.63 122.93
  L 322.05 122.94
  Q 321.46 122.94 321.28 122.38
  Q 320.42 119.78 320.44 118.75
  Q 320.66 109.25 320.88 99.75
  Q 320.90 98.91 322.06 98.05
  Q 324.69 96.11 325.25 92.74
  A 0.31 0.31 0.0 0 1 325.85 92.72
  C 326.17 93.98 325.90 95.16 326.21 96.38
  Q 329.22 108.36 327.31 121.48
  Z"
/>
<path fill="#c0bbbe" d="
  M 599.10 139.98
  Q 599.43 173.44 599.08 231.00
  C 599.04 238.09 598.60 244.85 595.48 250.98
  Q 590.33 261.10 579.61 265.31
  C 575.06 267.09 568.10 267.47 563.75 267.54
  Q 538.18 267.99 512.61 267.49
  Q 512.13 267.48 512.48 267.80
  Q 513.87 269.07 514.37 269.98
  C 517.75 276.14 521.98 286.91 527.98 294.82
  A 1.18 1.18 0.0 0 0 528.70 295.28
  C 535.70 296.72 543.46 296.26 540.96 306.48
  C 539.56 312.24 536.55 312.03 531.01 312.25
  Q 526.95 312.41 520.50 312.43
  Q 469.32 312.54 416.10 312.80
  A 2.64 2.63 85.9 0 1 413.48 310.53
  L 412.22 301.52
  A 1.07 1.05 -32.3 0 1 412.41 300.73
  Q 413.97 298.52 416.74 297.25
  C 422.96 295.10 427.12 292.08 430.57 286.10
  Q 435.25 277.98 439.77 269.75
  Q 440.13 269.10 440.13 268.64
  A 0.69 0.68 -89.6 0 0 439.46 267.95
  C 424.48 267.71 409.49 268.25 394.58 267.76
  Q 385.52 267.47 382.24 266.98
  Q 364.12 264.28 356.13 246.10
  Q 356.43 245.95 356.74 245.80
  Q 357.02 244.90 356.81 243.99
  Q 356.70 243.54 357.04 243.24
  Q 358.48 241.92 358.31 239.99
  Q 357.11 226.60 357.85 214.49
  Q 358.32 206.87 358.16 201.48
  Q 357.68 185.62 358.29 169.76
  Q 358.59 161.92 358.22 153.52
  C 357.58 139.22 357.80 126.64 362.08 112.98
  Q 362.62 111.26 365.89 107.41
  C 371.34 101.02 379.35 97.59 387.70 96.79
  C 390.35 96.53 393.16 95.67 395.80 95.50
  Q 408.07 94.75 420.35 94.71
  Q 426.41 94.69 432.62 94.24
  Q 440.12 93.70 444.90 93.70
  Q 491.68 93.71 538.47 93.83
  C 541.18 93.83 544.32 94.89 546.50 94.90
  Q 549.16 94.92 551.10 95.38
  Q 555.33 96.37 555.52 96.39
  Q 564.66 97.41 573.88 97.52
  C 575.22 97.54 576.48 98.20 577.72 98.69
  A 1.40 1.40 0.0 0 1 578.42 99.27
  C 579.39 100.85 581.08 101.29 582.17 102.28
  Q 586.16 105.92 590.22 109.50
  Q 590.66 109.89 590.72 110.48
  Q 590.96 112.82 592.60 114.54
  Q 592.91 114.86 592.87 115.31
  Q 592.75 116.53 593.53 117.52
  A 1.85 1.82 24.4 0 1 593.91 118.51
  Q 594.15 121.44 595.49 123.98
  Q 595.62 124.22 595.81 124.03
  L 596.11 123.73
  A 0.48 0.48 0.0 0 1 596.88 123.86
  Q 597.56 125.33 598.15 126.81
  Q 598.66 128.09 598.60 129.79
  Q 598.43 134.92 599.10 139.98
  Z"
/>
<g stroke-width="2.00" fill="none" stroke-linecap="butt">
<path stroke="#5c575b" vector-effect="non-scaling-stroke" d="
  M 577.03 112.19
  L 580.12 121.99
  A 1.72 1.71 -9.9 0 1 578.55 124.21
  C 566.19 124.65 553.54 124.06 541.35 125.37
  Q 540.69 125.44 541.16 125.90
  L 541.77 126.52
  Q 542.10 126.85 542.58 126.85
  L 557.96 126.84"
/>
<path stroke="#a19598" vector-effect="non-scaling-stroke" d="
  M 557.96 126.84
  Q 519.13 127.74 480.28 126.81"
/>
<path stroke="#5c575b" vector-effect="non-scaling-stroke" d="
  M 480.28 126.81
  L 484.97 126.25
  A 0.42 0.42 0.0 0 0 485.22 125.54
  Q 484.78 125.09 483.95 125.33
  Q 483.16 125.56 482.64 125.17
  Q 482.27 124.89 481.80 124.88
  Q 462.36 124.34 442.92 124.53
  C 433.28 124.63 421.17 123.82 410.24 124.30
  C 407.60 124.41 405.01 123.84 402.29 123.72
  C 400.22 123.63 397.74 125.45 396.11 122.73
  Q 395.94 122.45 396.24 122.34
  L 398.32 121.56
  A 1.17 1.15 36.9 0 1 398.86 121.49
  L 404.39 122.04
  Q 404.83 122.09 405.14 121.78
  Q 409.06 118.01 405.93 113.32
  Q 405.63 112.88 405.10 112.86
  Q 401.95 112.77 402.20 114.39"
/>
<path stroke="#b3b2b4" vector-effect="non-scaling-stroke" d="
  M 402.20 114.39
  L 400.42 114.91
  Q 399.89 115.07 399.71 115.60
  Q 399.04 117.63 400.36 119.96"
/>
<path stroke="#5c575b" vector-effect="non-scaling-stroke" d="
  M 400.36 119.96
  Q 399.54 119.78 399.33 118.94
  Q 399.17 118.27 398.56 118.59
  L 395.78 120.06"
/>
<path stroke="#b3b2b4" vector-effect="non-scaling-stroke" d="
  M 395.78 120.06
  C 397.47 113.15 389.90 112.64 390.48 119.71"
/>
<path stroke="#5c575b" vector-effect="non-scaling-stroke" d="
  M 390.48 119.71
  Q 387.55 118.32 390.38 122.93
  A 1.08 1.07 74.4 0 1 389.46 124.57
  L 375.58 124.55
  A 1.63 1.63 0.0 0 1 374.02 122.45
  Q 376.23 115.19 382.77 111.70
  Q 383.17 111.49 383.62 111.56
  Q 385.32 111.86 386.87 111.32
  Q 387.48 111.11 387.18 110.55
  Q 386.43 109.10 385.03 109.36"
/>
<path stroke="#ece1e3" vector-effect="non-scaling-stroke" d="
  M 581.89 143.22
  Q 572.41 142.34 561.93 142.93"
/>
<path stroke="#b9aeb6" vector-effect="non-scaling-stroke" d="
  M 561.93 142.93
  L 566.01 142.34
  A 0.30 0.30 0.0 0 0 566.07 141.76
  L 563.34 140.75"
/>
<path stroke="#ece1e3" vector-effect="non-scaling-stroke" d="
  M 563.34 140.75
  Q 566.24 141.00 565.74 135.45
  Q 565.50 132.93 562.75 132.93
  Q 520.13 133.02 476.55 132.86
  A 1.44 1.43 0.2 0 0 475.11 134.28
  L 475.04 139.65
  Q 475.04 140.25 475.63 140.28
  L 486.80 140.87"
/>
<path stroke="#b9aeb6" vector-effect="non-scaling-stroke" d="
  M 486.80 140.87
  Q 483.16 141.21 479.50 141.24
  Q 478.86 141.24 478.63 141.66
  Q 478.31 142.25 478.98 142.29
  L 487.74 142.82"
/>
<path stroke="#ece1e3" vector-effect="non-scaling-stroke" d="
  M 487.74 142.82
  C 480.48 143.14 474.64 143.35 466.08 143.27
  Q 460.99 143.22 453.75 143.49
  Q 435.38 144.19 412.48 143.29
  C 400.95 142.84 388.55 143.31 376.54 142.87"
/>
<path stroke="#94868a" vector-effect="non-scaling-stroke" d="
  M 582.21 126.66
  L 557.96 126.84"
/>
<path stroke="#a7a3a6" vector-effect="non-scaling-stroke" d="
  M 390.48 119.71
  Q 392.18 121.63 395.78 120.06"
/>
<path stroke="#a7a3a6" vector-effect="non-scaling-stroke" d="
  M 400.36 119.96
  Q 401.84 120.95 403.81 120.55
  A 1.02 1.01 -84.0 0 0 404.52 119.97
  Q 406.92 114.56 402.20 114.39"
/>
<path stroke="#94868a" vector-effect="non-scaling-stroke" d="
  M 480.28 126.81
  L 372.05 126.97"
/>
<path stroke="#cccbd2" vector-effect="non-scaling-stroke" d="
  M 561.93 142.93
  L 487.74 142.82"
/>
<path stroke="#cccbd2" vector-effect="non-scaling-stroke" d="
  M 563.34 140.75
  L 486.80 140.87"
/>
</g>
<path fill="#686668" d="
  M 894.89 108.97
  L 894.53 116.95
  A 1.16 1.15 -88.9 0 1 893.39 118.06
  C 831.98 118.70 770.47 118.17 709.01 118.42
  C 692.75 118.49 675.12 118.08 658.12 118.41
  Q 657.61 118.42 657.34 117.98
  Q 656.80 117.11 657.11 116.00
  C 657.30 113.08 656.98 109.41 657.53 106.96
  C 659.30 99.07 668.06 96.77 675.25 96.79
  C 705.33 96.90 735.42 97.33 765.50 97.07
  Q 812.87 96.67 860.25 97.07
  Q 879.90 97.23 886.27 97.94
  Q 895.46 98.96 894.89 108.97
  Z"
/>
<path fill="#180c58" d="
  M 626.86 122.35
  A 1.47 1.47 0.0 0 1 625.38 120.89
  L 625.30 105.26
  A 8.20 3.24 89.7 0 1 628.49 97.04
  L 628.57 97.04
  A 8.20 3.24 89.7 0 1 631.86 105.22
  L 631.94 120.85
  A 1.47 1.47 0.0 0 1 630.48 122.33
  L 626.86 122.35
  Z"
/>
<path fill="#fefeff" d="
  M 627.05 121.47
  A 1.15 1.15 0.0 0 1 625.90 120.31
  L 625.94 108.75
  A 10.51 1.94 -89.8 0 1 627.92 98.25
  L 629.08 98.25
  A 10.51 1.94 -89.8 0 1 630.98 108.77
  L 630.94 120.33
  A 1.15 1.15 0.0 0 1 629.79 121.47
  L 627.05 121.47
  Z"
/>
<rect fill="#fefeff" x="-2.18" y="-11.25" transform="translate(324.08,109.91) rotate(0.3)" width="4.36" height="22.50" rx="1.96"/>
<path fill="#fefeff" d="
  M 155.30 120.84
  A 0.71 0.71 0.0 0 1 154.59 120.12
  L 154.68 110.04
  A 10.70 1.41 -89.5 0 1 156.18 99.35
  L 156.72 99.35
  A 10.70 1.41 -89.5 0 1 158.04 110.06
  L 157.95 120.15
  A 0.71 0.71 0.0 0 1 157.24 120.86
  L 155.30 120.84
  Z"
/>
<path fill="#fefeff" d="
  M 675.56 105.32
  A 1.22 1.22 0.0 0 1 676.84 106.48
  L 676.93 108.19
  A 3.66 2.51 87.1 0 1 674.61 111.98
  L 674.21 112.00
  A 3.66 2.51 87.1 0 1 671.52 108.47
  L 671.43 106.75
  A 1.22 1.22 0.0 0 1 672.58 105.47
  L 675.56 105.32
  Z"
/>
<rect fill="#fefeff" x="-2.53" y="-2.85" transform="translate(683.16,108.50) rotate(-4.1)" width="5.06" height="5.70" rx="1.71"/>
<path fill="#fefeff" d="
  M 693.88 110.82
  L 691.62 111.33
  A 1.73 1.73 0.0 0 1 689.52 109.80
  L 689.34 107.82
  A 1.73 1.73 0.0 0 1 691.22 105.94
  L 693.74 106.17
  A 1.73 1.73 0.0 0 1 695.31 108.00
  L 695.23 109.24
  A 1.73 1.73 0.0 0 1 693.88 110.82
  Z"
/>
<path fill="#d9c4c7" d="
  M 897.31 137.22
  Q 897.17 139.06 896.21 140.51
  Q 896.28 139.71 895.01 139.62
  Q 888.55 139.21 882.27 140.02
  Q 808.53 139.02 734.75 140.24
  Q 715.31 140.56 672.04 140.01
  L 656.96 139.64
  A 0.97 0.96 0.0 0 0 655.97 140.62
  L 656.09 146.23
  L 655.63 140.50
  Q 654.95 132.36 654.83 124.29
  C 654.79 121.66 653.85 118.84 653.65 116.05
  Q 653.60 115.38 654.28 115.38
  L 655.83 115.38
  Q 656.12 115.38 656.28 115.13
  L 656.60 114.65
  Q 657.03 113.99 657.06 114.78
  L 657.11 116.00
  Q 656.80 117.11 657.34 117.98
  Q 657.61 118.42 658.12 118.41
  C 675.12 118.08 692.75 118.49 709.01 118.42
  C 770.47 118.17 831.98 118.70 893.39 118.06
  A 1.16 1.15 -88.9 0 0 894.53 116.95
  L 894.89 108.97
  L 895.26 106.38
  Q 895.44 105.15 895.98 106.26
  L 898.91 112.27
  Q 899.17 112.80 898.74 113.20
  Q 897.66 114.22 898.44 115.69
  Q 898.60 115.98 898.30 116.12
  Q 898.16 116.18 898.03 116.24
  Q 897.87 116.30 897.87 116.47
  L 897.31 137.22
  Z"
/>
<path fill="#686668" d="
  M 577.03 112.19
  L 580.12 121.99
  A 1.72 1.71 -9.9 0 1 578.55 124.21
  C 566.19 124.65 553.54 124.06 541.35 125.37
  Q 540.69 125.44 541.16 125.90
  L 541.77 126.52
  Q 542.10 126.85 542.58 126.85
  L 557.96 126.84
  Q 519.13 127.74 480.28 126.81
  L 484.97 126.25
  A 0.42 0.42 0.0 0 0 485.22 125.54
  Q 484.78 125.09 483.95 125.33
  Q 483.16 125.56 482.64 125.17
  Q 482.27 124.89 481.80 124.88
  Q 462.36 124.34 442.92 124.53
  C 433.28 124.63 421.17 123.82 410.24 124.30
  C 407.60 124.41 405.01 123.84 402.29 123.72
  C 400.22 123.63 397.74 125.45 396.11 122.73
  Q 395.94 122.45 396.24 122.34
  L 398.32 121.56
  A 1.17 1.15 36.9 0 1 398.86 121.49
  L 404.39 122.04
  Q 404.83 122.09 405.14 121.78
  Q 409.06 118.01 405.93 113.32
  Q 405.63 112.88 405.10 112.86
  Q 401.95 112.77 402.20 114.39
  L 400.42 114.91
  Q 399.89 115.07 399.71 115.60
  Q 399.04 117.63 400.36 119.96
  Q 399.54 119.78 399.33 118.94
  Q 399.17 118.27 398.56 118.59
  L 395.78 120.06
  C 397.47 113.15 389.90 112.64 390.48 119.71
  Q 387.55 118.32 390.38 122.93
  A 1.08 1.07 74.4 0 1 389.46 124.57
  L 375.58 124.55
  A 1.63 1.63 0.0 0 1 374.02 122.45
  Q 376.23 115.19 382.77 111.70
  Q 383.17 111.49 383.62 111.56
  Q 385.32 111.86 386.87 111.32
  Q 387.48 111.11 387.18 110.55
  Q 386.43 109.10 385.03 109.36
  C 396.14 108.38 409.47 108.91 418.32 108.72
  Q 427.39 108.54 436.45 108.62
  C 472.87 108.94 509.32 108.57 545.75 108.65
  Q 562.33 108.69 569.98 109.08
  Q 575.24 109.35 577.03 112.19
  Z"
/>
<path fill="#4f484d" d="
  M 385.03 109.36
  Q 386.43 109.10 387.18 110.55
  Q 387.48 111.11 386.87 111.32
  Q 385.32 111.86 383.62 111.56
  Q 383.17 111.49 382.77 111.70
  Q 376.23 115.19 374.02 122.45
  A 1.63 1.63 0.0 0 0 375.58 124.55
  L 389.46 124.57
  A 1.08 1.07 74.4 0 0 390.38 122.93
  Q 387.55 118.32 390.48 119.71
  Q 392.18 121.63 395.78 120.06
  L 398.56 118.59
  Q 399.17 118.27 399.33 118.94
  Q 399.54 119.78 400.36 119.96
  Q 401.84 120.95 403.81 120.55
  A 1.02 1.01 -84.0 0 0 404.52 119.97
  Q 406.92 114.56 402.20 114.39
  Q 401.95 112.77 405.10 112.86
  Q 405.63 112.88 405.93 113.32
  Q 409.06 118.01 405.14 121.78
  Q 404.83 122.09 404.39 122.04
  L 398.86 121.49
  A 1.17 1.15 36.9 0 0 398.32 121.56
  L 396.24 122.34
  Q 395.94 122.45 396.11 122.73
  C 397.74 125.45 400.22 123.63 402.29 123.72
  C 405.01 123.84 407.60 124.41 410.24 124.30
  C 421.17 123.82 433.28 124.63 442.92 124.53
  Q 462.36 124.34 481.80 124.88
  Q 482.27 124.89 482.64 125.17
  Q 483.16 125.56 483.95 125.33
  Q 484.78 125.09 485.22 125.54
  A 0.42 0.42 0.0 0 1 484.97 126.25
  L 480.28 126.81
  L 372.05 126.97
  Q 371.52 120.64 374.56 115.53
  Q 377.98 109.78 385.03 109.36
  Z"
/>
<path fill="#4f484d" d="
  M 577.03 112.19
  Q 582.57 117.68 582.21 126.66
  L 557.96 126.84
  L 542.58 126.85
  Q 542.10 126.85 541.77 126.52
  L 541.16 125.90
  Q 540.69 125.44 541.35 125.37
  C 553.54 124.06 566.19 124.65 578.55 124.21
  A 1.72 1.71 -9.9 0 0 580.12 121.99
  L 577.03 112.19
  Z"
/>
<path fill="#fefeff" d="
  M 402.20 114.39
  Q 406.92 114.56 404.52 119.97
  A 1.02 1.01 -84.0 0 1 403.81 120.55
  Q 401.84 120.95 400.36 119.96
  Q 399.04 117.63 399.71 115.60
  Q 399.89 115.07 400.42 114.91
  L 402.20 114.39
  Z"
/>
<path fill="#fefeff" d="
  M 441.03 116.82
  L 440.72 118.71
  A 1.92 1.92 0.0 0 1 438.39 120.27
  L 436.98 119.94
  A 1.92 1.92 0.0 0 1 435.51 118.27
  L 435.37 116.94
  A 1.92 1.92 0.0 0 1 437.05 114.84
  L 438.90 114.61
  A 1.92 1.92 0.0 0 1 441.03 116.82
  Z"
/>
<path fill="#fefeff" d="
  M 395.78 120.06
  Q 392.18 121.63 390.48 119.71
  C 389.90 112.64 397.47 113.15 395.78 120.06
  Z"
/>
<path fill="#c0bbbe" d="
  M 655.63 140.50
  L 656.09 146.23
  Q 655.68 186.24 656.97 216.75
  Q 657.28 224.14 659.40 234.03
  A 1.65 1.61 -75.2 0 0 659.87 234.86
  Q 661.74 236.58 663.74 236.73
  Q 673.77 237.48 687.54 237.30
  L 870.78 237.29
  Q 878.99 237.09 881.53 237.34
  Q 893.88 238.53 894.86 226.38
  C 895.45 219.13 896.02 211.95 896.00 204.53
  Q 895.89 172.51 896.21 140.51
  Q 897.17 139.06 897.31 137.22
  L 897.98 127.89
  A 0.52 0.52 0.0 0 1 899.01 127.84
  C 899.28 129.46 899.72 131.01 899.60 132.74
  Q 899.13 139.59 899.30 151.00
  Q 899.52 166.75 899.35 203.25
  C 899.29 215.81 900.61 228.59 901.30 241.33
  Q 901.32 241.83 901.70 242.16
  Q 902.70 243.01 902.89 244.48
  Q 902.95 244.94 902.75 245.35
  C 901.27 248.40 901.65 252.00 901.17 254.59
  Q 900.23 259.57 899.75 264.77
  C 892.60 274.42 884.22 273.99 872.75 274.04
  Q 829.48 274.23 786.49 273.71
  A 1.12 1.12 0.0 0 0 785.36 274.79
  L 784.83 291.84
  A 0.78 0.77 89.7 0 0 785.63 292.64
  C 787.46 292.57 789.34 292.91 791.13 292.86
  Q 817.56 292.16 844.00 292.69
  Q 849.50 292.80 852.74 293.26
  C 855.43 293.64 856.65 295.26 858.55 297.51
  Q 862.51 302.20 861.59 308.60
  A 1.99 1.99 0.0 0 1 859.61 310.30
  C 841.02 310.19 822.58 309.61 804.00 310.04
  C 765.12 310.94 728.61 309.30 690.80 310.46
  A 1.28 1.28 0.0 0 1 689.48 309.24
  C 688.98 299.28 695.00 293.54 704.36 292.90
  Q 711.93 292.39 722.75 292.36
  Q 744.75 292.31 766.50 292.72
  A 0.58 0.58 0.0 0 0 767.10 292.14
  L 767.24 274.16
  A 0.68 0.68 0.0 0 0 766.51 273.47
  Q 761.97 273.84 757.25 273.89
  Q 718.90 274.34 680.40 273.90
  L 667.47 273.06
  Q 669.07 273.24 669.33 273.21
  Q 672.17 272.84 669.71 271.39
  Q 667.71 270.22 665.28 269.20
  Q 661.70 267.70 658.64 265.38
  Q 655.55 263.04 654.01 259.54
  Q 651.78 254.44 651.67 248.76
  Q 651.42 235.22 652.24 221.73
  Q 653.03 208.74 653.08 201.75
  Q 653.36 161.05 652.73 118.92
  A 0.56 0.56 0.0 0 1 653.84 118.80
  C 654.17 120.51 654.56 122.56 654.49 124.44
  Q 654.17 132.68 655.63 140.50
  Z"
/>
<path fill="#fefeff" d="
  M 757.69 126.30
  A 2.87 2.87 0.0 0 1 760.56 123.43
  L 876.21 123.43
  A 6.34 1.79 -0.0 0 1 882.55 125.22
  L 882.55 133.40
  A 6.34 1.79 0.0 0 1 876.21 135.19
  L 760.56 135.19
  A 2.87 2.87 0.0 0 1 757.69 132.32
  L 757.69 126.30
  Z"
/>
<path fill="#fefeff" d="
  M 722.13 132.23
  L 701.97 132.83
  A 1.60 1.60 0.0 0 1 700.32 131.22
  L 700.37 125.58
  A 1.60 1.60 0.0 0 1 701.92 123.99
  L 722.15 123.35
  A 1.60 1.60 0.0 0 1 723.80 124.99
  L 723.68 130.66
  A 1.60 1.60 0.0 0 1 722.13 132.23
  Z"
/>
<rect fill="#fefeff" x="-11.05" y="-4.25" transform="translate(682.43,128.19) rotate(0.1)" width="22.10" height="8.50" rx="2.28"/>
<path fill="#d9c4c7" d="
  M 480.28 126.81
  Q 519.13 127.74 557.96 126.84
  L 582.21 126.66
  Q 583.27 134.86 581.89 143.22
  Q 572.41 142.34 561.93 142.93
  L 566.01 142.34
  A 0.30 0.30 0.0 0 0 566.07 141.76
  L 563.34 140.75
  Q 566.24 141.00 565.74 135.45
  Q 565.50 132.93 562.75 132.93
  Q 520.13 133.02 476.55 132.86
  A 1.44 1.43 0.2 0 0 475.11 134.28
  L 475.04 139.65
  Q 475.04 140.25 475.63 140.28
  L 486.80 140.87
  Q 483.16 141.21 479.50 141.24
  Q 478.86 141.24 478.63 141.66
  Q 478.31 142.25 478.98 142.29
  L 487.74 142.82
  C 480.48 143.14 474.64 143.35 466.08 143.27
  Q 460.99 143.22 453.75 143.49
  Q 435.38 144.19 412.48 143.29
  C 400.95 142.84 388.55 143.31 376.54 142.87
  Q 379.92 143.33 380.67 141.47
  A 0.94 0.94 0.0 0 0 379.82 140.18
  L 372.59 140.01
  A 0.69 0.69 0.0 0 1 371.93 139.42
  Q 370.98 132.96 372.05 126.97
  L 480.28 126.81
  Z"
/>
<rect fill="#fefeff" x="-11.28" y="-2.75" transform="translate(392.80,135.72) rotate(-0.1)" width="22.56" height="5.50" rx="1.44"/>
<path fill="#fefeff" d="
  M 409.56 134.02
  A 1.25 1.25 0.0 0 1 410.81 132.78
  L 428.58 132.87
  A 5.92 1.78 0.3 0 1 434.49 134.69
  L 434.48 136.65
  A 5.92 1.78 0.3 0 1 428.56 138.39
  L 410.79 138.30
  A 1.25 1.25 0.0 0 1 409.54 137.04
  L 409.56 134.02
  Z"
/>
<path fill="#fefeff" d="
  M 563.34 140.75
  L 486.80 140.87
  L 475.63 140.28
  Q 475.04 140.25 475.04 139.65
  L 475.11 134.28
  A 1.44 1.43 0.2 0 1 476.55 132.86
  Q 520.13 133.02 562.75 132.93
  Q 565.50 132.93 565.74 135.45
  Q 566.24 141.00 563.34 140.75
  Z"
/>
<path fill="#6752a8" d="
  M 325.84 157.43
  Q 323.16 158.30 321.13 156.39
  A 0.85 0.82 22.0 0 1 320.86 155.78
  L 320.70 136.10
  Q 320.70 135.66 320.97 135.31
  Q 323.16 132.61 326.35 133.94
  A 1.32 1.32 0.0 0 1 327.11 134.78
  Q 327.75 136.92 327.70 140.00
  Q 327.56 147.11 327.17 154.21
  C 327.12 155.06 326.64 155.63 326.55 156.55
  A 1.04 1.04 0.0 0 1 325.84 157.43
  Z"
/>
<path fill="#180c58" d="
  M 630.91 156.03
  L 630.89 136.03
  Q 630.89 135.45 630.35 135.24
  Q 628.44 134.48 626.77 135.37
  Q 626.29 135.64 626.26 136.19
  Q 625.77 148.49 626.22 155.20
  Q 626.27 155.99 627.25 156.48
  Q 626.85 156.74 626.18 155.94
  Q 625.87 155.57 625.82 155.09
  Q 624.68 143.36 625.37 137.09
  Q 625.81 133.09 630.47 133.92
  Q 631.85 134.16 631.94 135.56
  Q 632.51 144.86 631.93 154.52
  Q 631.90 155.04 631.74 155.46
  Q 631.19 156.89 630.91 156.03
  Z"
/>
<path fill="#fefeff" d="
  M 630.91 156.03
  Q 629.46 157.27 627.25 156.48
  Q 626.27 155.99 626.22 155.20
  Q 625.77 148.49 626.26 136.19
  Q 626.29 135.64 626.77 135.37
  Q 628.44 134.48 630.35 135.24
  Q 630.89 135.45 630.89 136.03
  L 630.91 156.03
  Z"
/>
<rect fill="#fefeff" x="-2.06" y="-10.57" transform="translate(324.06,146.00) rotate(0.5)" width="4.12" height="21.14" rx="1.26"/>
<rect fill="#fefeff" x="-1.68" y="-10.35" transform="translate(156.41,146.05) rotate(-0.8)" width="3.36" height="20.70" rx="1.63"/>
<path fill="#fefeff" d="
  M 882.27 140.02
  Q 882.44 142.88 882.80 145.68
  Q 883.20 148.89 883.20 151.34
  Q 883.25 185.79 883.46 220.25
  C 883.48 223.60 883.47 230.75 881.08 233.36
  Q 880.55 233.94 880.07 236.33
  A 0.64 0.63 -85.3 0 1 879.48 236.84
  L 870.78 237.29
  L 687.54 237.30
  L 672.77 236.78
  Q 672.54 236.78 672.68 236.60
  L 672.88 236.35
  A 0.70 0.69 -34.7 0 0 673.00 235.71
  Q 672.29 233.55 673.78 232.40
  Q 674.22 232.06 673.99 231.56
  Q 673.68 230.86 674.09 230.21
  A 0.97 0.95 -73.9 0 1 674.88 229.76
  L 682.54 229.51
  L 750.44 229.70
  L 755.49 229.63
  A 0.58 0.57 -0.5 0 0 756.06 229.06
  L 756.18 146.19
  Q 756.18 145.50 755.49 145.50
  L 741.18 145.55
  L 680.55 145.62
  L 673.66 145.24
  Q 673.16 145.22 672.77 144.91
  Q 668.83 141.82 672.04 140.01
  Q 715.31 140.56 734.75 140.24
  Q 808.53 139.02 882.27 140.02
  Z"
/>
<path fill="#f5f4fc" d="
  M 896.21 140.51
  Q 895.89 172.51 896.00 204.53
  C 896.02 211.95 895.45 219.13 894.86 226.38
  Q 893.88 238.53 881.53 237.34
  Q 878.99 237.09 870.78 237.29
  L 879.48 236.84
  A 0.64 0.63 -85.3 0 0 880.07 236.33
  Q 880.55 233.94 881.08 233.36
  C 883.47 230.75 883.48 223.60 883.46 220.25
  Q 883.25 185.79 883.20 151.34
  Q 883.20 148.89 882.80 145.68
  Q 882.44 142.88 882.27 140.02
  Q 888.55 139.21 895.01 139.62
  Q 896.28 139.71 896.21 140.51
  Z"
/>
<path fill="#f5f4fc" d="
  M 672.04 140.01
  Q 668.83 141.82 672.77 144.91
  Q 673.16 145.22 673.66 145.24
  L 680.55 145.62
  L 674.89 145.48
  A 0.99 0.98 0.6 0 0 673.88 146.46
  L 673.78 228.81
  A 0.74 0.74 0.0 0 0 674.52 229.55
  L 682.54 229.51
  L 674.88 229.76
  A 0.97 0.95 -73.9 0 0 674.09 230.21
  Q 673.68 230.86 673.99 231.56
  Q 674.22 232.06 673.78 232.40
  Q 672.29 233.55 673.00 235.71
  A 0.70 0.69 -34.7 0 1 672.88 236.35
  L 672.68 236.60
  Q 672.54 236.78 672.77 236.78
  L 687.54 237.30
  Q 673.77 237.48 663.74 236.73
  Q 661.74 236.58 659.87 234.86
  A 1.65 1.61 -75.2 0 1 659.40 234.03
  Q 657.28 224.14 656.97 216.75
  Q 655.68 186.24 656.09 146.23
  L 655.97 140.62
  A 0.97 0.96 0.0 0 1 656.96 139.64
  L 672.04 140.01
  Z"
/>
<path fill="#c0bbbe" d="
  M 58.53 276.64
  Q 59.80 274.03 59.06 270.69
  Q 58.52 268.27 58.77 266.71
  Q 59.36 262.84 60.32 258.95
  L 60.31 262.72
  Q 60.30 264.11 61.69 264.19
  Q 73.32 264.84 84.94 263.79
  Q 85.15 263.77 85.17 263.56
  Q 85.19 263.25 85.00 263.25
  Q 74.42 263.07 62.10 263.16
  L 126.27 262.86
  A 1.73 1.73 0.0 0 0 127.99 261.15
  L 128.34 235.54
  L 128.56 257.53
  Q 128.56 258.11 128.98 257.70
  Q 129.44 257.24 129.52 256.50
  C 129.93 252.83 130.34 249.22 130.37 245.48
  Q 130.63 214.48 129.77 183.50
  Q 129.74 182.46 129.16 180.61
  Q 129.00 180.08 129.13 179.54
  Q 129.67 177.22 128.74 174.99
  A 0.23 0.23 0.0 0 0 128.30 175.07
  L 128.04 180.73
  L 127.70 171.62
  L 127.22 161.55
  Q 127.15 160.18 125.78 160.18
  L 62.68 160.30
  Q 62.11 159.33 60.86 157.90
  C 59.25 156.05 58.53 154.13 57.71 151.93
  A 0.52 0.52 0.0 0 0 56.71 152.08
  Q 56.68 152.73 56.11 152.33
  Q 56.45 145.00 64.14 141.59
  Q 67.45 140.12 76.00 140.06
  Q 100.26 139.90 124.69 140.02
  Q 125.31 140.02 125.82 140.39
  C 134.49 146.82 134.58 153.24 134.82 164.54
  Q 135.14 179.43 134.83 201.00
  Q 134.62 215.95 135.03 255.39
  C 135.08 259.98 134.54 264.47 134.06 269.02
  Q 133.68 272.64 133.09 274.39
  C 130.12 283.30 123.57 282.85 114.38 283.41
  Q 89.02 284.95 66.87 282.90
  Q 60.36 282.30 58.53 276.64
  Z"
/>
<path fill="#c8c1d5" d="
  M 293.17 281.46
  L 295.93 263.19
  Q 296.01 262.66 295.63 262.29
  C 293.08 259.76 293.73 249.02 293.78 244.00
  C 293.86 235.02 293.46 223.78 293.57 210.45
  Q 293.64 202.64 293.02 194.84
  Q 293.01 194.75 293.07 194.69
  Q 293.09 194.65 293.13 194.62
  Q 293.25 194.49 293.25 194.31
  Q 292.73 183.98 293.10 173.62
  C 293.24 169.60 292.50 166.06 291.83 162.18
  A 1.03 1.02 -80.2 0 0 291.32 161.45
  Q 290.07 160.73 290.09 159.51
  Q 290.17 155.67 290.08 151.84
  Q 290.08 151.75 289.98 151.75
  Q 289.85 151.75 289.72 151.75
  Q 289.70 151.75 289.70 151.77
  L 289.59 155.30
  L 289.39 150.00
  Q 289.37 149.45 288.86 149.25
  Q 287.42 148.68 286.25 148.68
  C 262.00 148.80 237.74 148.99 213.50 148.45
  Q 206.77 148.30 198.00 148.38
  Q 195.25 148.40 193.18 149.36
  A 0.89 0.88 -14.7 0 0 192.67 150.22
  Q 193.10 156.00 191.99 161.71
  Q 191.48 161.70 191.27 162.13
  Q 191.14 162.41 191.26 162.87
  C 191.52 163.89 191.82 164.64 191.86 165.72
  Q 192.31 177.35 192.16 188.96
  L 191.52 165.40
  A 0.54 0.54 0.0 0 0 190.65 164.98
  Q 189.81 165.61 189.75 167.27
  Q 189.28 180.86 189.32 189.09
  C 189.34 194.72 187.98 200.28 188.12 205.86
  Q 188.77 230.27 188.44 254.69
  Q 188.40 257.41 187.69 260.99
  Q 186.85 265.25 187.15 267.36
  Q 188.03 273.37 187.31 281.30
  C 186.07 278.74 185.01 276.87 184.74 274.08
  Q 183.93 265.87 183.97 255.25
  C 184.05 232.75 184.50 210.24 183.92 187.75
  Q 183.49 171.19 184.07 154.62
  C 184.26 149.19 183.91 145.72 187.58 142.76
  C 190.90 140.10 197.10 140.15 201.50 140.11
  Q 244.37 139.77 287.24 140.33
  Q 296.87 140.46 297.70 149.15
  C 298.26 154.98 298.84 160.73 298.82 166.63
  C 298.71 195.53 298.18 224.52 298.98 253.41
  Q 299.31 265.73 296.88 277.00
  Q 296.35 279.47 293.17 281.46
  Z"
/>
<path fill="#9998a4" d="
  M 563.34 140.75
  L 566.07 141.76
  A 0.30 0.30 0.0 0 1 566.01 142.34
  L 561.93 142.93
  L 487.74 142.82
  L 478.98 142.29
  Q 478.31 142.25 478.63 141.66
  Q 478.86 141.24 479.50 141.24
  Q 483.16 141.21 486.80 140.87
  L 563.34 140.75
  Z"
/>
<path fill="#fefeff" d="
  M 376.54 142.87
  C 388.55 143.31 400.95 142.84 412.48 143.29
  Q 435.38 144.19 453.75 143.49
  Q 460.99 143.22 466.08 143.27
  C 474.64 143.35 480.48 143.14 487.74 142.82
  L 561.93 142.93
  Q 572.41 142.34 581.89 143.22
  Q 581.16 177.54 581.90 210.00
  Q 581.96 212.49 581.87 214.85
  A 1.18 1.18 0.0 0 1 580.69 215.99
  Q 499.13 216.31 417.50 216.03
  C 402.59 215.97 388.85 216.34 374.03 216.73
  Q 371.76 216.79 371.77 214.51
  L 372.07 143.43
  A 0.89 0.89 0.0 0 1 373.04 142.55
  L 376.54 142.87
  Z"
/>
<g stroke-width="2.00" fill="none" stroke-linecap="butt">
<path stroke="#5c575b" vector-effect="non-scaling-stroke" d="
  M 466.21 157.71
  Q 464.82 154.74 464.70 151.19
  Q 464.68 150.59 464.08 150.62
  C 459.91 150.82 455.96 150.71 451.65 151.06
  C 445.56 151.55 439.62 151.21 433.44 151.48
  C 427.50 151.73 420.36 151.00 415.67 151.07
  Q 401.22 151.28 386.82 151.18
  Q 385.93 151.17 385.92 152.06
  Q 385.68 168.81 385.56 184.62
  Q 385.56 185.04 385.37 185.32
  Q 385.15 185.64 384.85 185.89
  Q 384.34 186.33 384.29 185.66
  Q 384.23 184.92 383.93 184.43"
/>
<path stroke="#817f86" vector-effect="non-scaling-stroke" d="
  M 560.04 199.86
  L 510.77 199.95
  Q 510.37 199.95 510.25 200.33
  L 510.13 200.68
  A 0.36 0.36 0.0 0 0 510.47 201.15
  L 535.80 201.38"
/>
</g>
<path fill="#686668" d="
  M 750.44 229.70
  Q 750.95 229.34 751.76 229.33
  A 0.48 0.48 0.0 0 0 752.23 228.85
  L 752.24 227.74
  A 0.75 0.75 0.0 0 0 751.48 226.98
  L 677.71 227.48
  A 1.49 1.48 -3.7 0 1 676.23 226.19
  C 675.02 217.13 675.67 208.43 675.94 199.33
  C 676.43 182.64 675.47 165.85 675.27 149.08
  A 1.96 1.96 0.0 0 1 677.57 147.12
  Q 680.13 147.57 683.00 147.59
  Q 717.40 147.79 752.49 147.27
  A 0.46 0.45 -36.8 0 0 752.62 146.38
  Q 752.22 146.26 751.64 146.02
  Q 751.14 145.82 750.58 145.85
  Q 745.84 146.12 741.18 145.55
  L 755.49 145.50
  Q 756.18 145.50 756.18 146.19
  L 756.06 229.06
  A 0.58 0.57 -0.5 0 1 755.49 229.63
  L 750.44 229.70
  Z"
/>
<path stroke="#d0cdcf" stroke-width="2.00" fill="none" stroke-linecap="butt" vector-effect="non-scaling-stroke" d="
  M 712.54 163.43
  L 684.82 163.37"
/>
<path fill="#4f484d" d="
  M 680.55 145.62
  L 741.18 145.55
  Q 745.84 146.12 750.58 145.85
  Q 751.14 145.82 751.64 146.02
  Q 752.22 146.26 752.62 146.38
  A 0.46 0.45 -36.8 0 1 752.49 147.27
  Q 717.40 147.79 683.00 147.59
  Q 680.13 147.57 677.57 147.12
  A 1.96 1.96 0.0 0 0 675.27 149.08
  C 675.47 165.85 676.43 182.64 675.94 199.33
  C 675.67 208.43 675.02 217.13 676.23 226.19
  A 1.49 1.48 -3.7 0 0 677.71 227.48
  L 751.48 226.98
  A 0.75 0.75 0.0 0 1 752.24 227.74
  L 752.23 228.85
  A 0.48 0.48 0.0 0 1 751.76 229.33
  Q 750.95 229.34 750.44 229.70
  L 682.54 229.51
  L 674.52 229.55
  A 0.74 0.74 0.0 0 1 673.78 228.81
  L 673.88 146.46
  A 0.99 0.98 0.6 0 1 674.89 145.48
  L 680.55 145.62
  Z"
/>
<path fill="#4f484d" d="
  M 289.59 155.30
  L 289.63 161.14
  Q 280.38 161.82 271.25 161.71
  C 244.91 161.37 218.51 161.65 191.99 161.71
  Q 193.10 156.00 192.67 150.22
  A 0.89 0.88 -14.7 0 1 193.18 149.36
  Q 195.25 148.40 198.00 148.38
  Q 206.77 148.30 213.50 148.45
  C 237.74 148.99 262.00 148.80 286.25 148.68
  Q 287.42 148.68 288.86 149.25
  Q 289.37 149.45 289.39 150.00
  L 289.59 155.30
  Z"
/>
<path fill="#4f484d" d="
  M 466.21 157.71
  Q 464.82 154.74 464.70 151.19
  Q 464.68 150.59 464.08 150.62
  C 459.91 150.82 455.96 150.71 451.65 151.06
  C 445.56 151.55 439.62 151.21 433.44 151.48
  C 427.50 151.73 420.36 151.00 415.67 151.07
  Q 401.22 151.28 386.82 151.18
  Q 385.93 151.17 385.92 152.06
  Q 385.68 168.81 385.56 184.62
  Q 385.56 185.04 385.37 185.32
  Q 385.15 185.64 384.85 185.89
  Q 384.34 186.33 384.29 185.66
  Q 384.23 184.92 383.93 184.43
  L 383.66 149.98
  A 0.52 0.51 90.0 0 1 384.17 149.46
  L 465.61 149.26
  A 0.54 0.54 0.0 0 1 466.16 149.80
  L 466.21 157.71
  Z"
/>
<path fill="#896cfa" d="
  M 79.50 150.25
  Q 79.48 150.03 79.56 149.85
  A 0.67 0.67 0.0 0 1 80.29 149.49
  Q 82.91 150.03 85.51 149.82
  Q 90.00 149.45 90.51 149.45
  Q 96.72 149.49 102.93 149.61
  C 104.57 149.64 105.74 150.44 105.01 152.21
  Q 104.83 152.66 104.36 152.79
  Q 103.06 153.13 101.75 153.15
  Q 90.70 153.28 79.66 152.82
  Q 79.15 152.80 78.95 152.33
  Q 78.42 151.14 79.50 150.25
  Z"
/>
<rect fill="#dfdfe0" x="-7.39" y="-1.19" transform="translate(204.22,150.96) rotate(-1.6)" width="14.78" height="2.38" rx="1.16"/>
<rect fill="#fefeff" x="215.53" y="150.76" width="70.84" height="9.22" rx="0.75"/>
<path fill="#c0bbbe" d="
  M 773.38 150.75
  L 805.65 150.96
  A 0.47 0.47 0.0 0 1 806.11 151.42
  L 806.39 180.60
  A 0.47 0.47 0.0 0 1 805.92 181.07
  L 773.53 181.39
  A 0.47 0.47 0.0 0 1 773.06 180.92
  L 772.90 151.23
  A 0.47 0.47 0.0 0 1 773.38 150.75
  Z"
/>
<path fill="#686668" d="
  M 466.21 157.71
  L 466.22 207.02
  A 1.25 1.25 0.0 0 1 464.97 208.27
  L 384.27 208.10
  A 0.77 0.76 -89.6 0 1 383.51 207.32
  L 383.93 184.43
  Q 384.23 184.92 384.29 185.66
  Q 384.34 186.33 384.85 185.89
  Q 385.15 185.64 385.37 185.32
  Q 385.56 185.04 385.56 184.62
  Q 385.68 168.81 385.92 152.06
  Q 385.93 151.17 386.82 151.18
  Q 401.22 151.28 415.67 151.07
  C 420.36 151.00 427.50 151.73 433.44 151.48
  C 439.62 151.21 445.56 151.55 451.65 151.06
  C 455.96 150.71 459.91 150.82 464.08 150.62
  Q 464.68 150.59 464.70 151.19
  Q 464.82 154.74 466.21 157.71
  Z"
/>
<rect fill="#c0bbbe" x="-28.86" y="-3.20" transform="translate(846.39,154.49) rotate(-0.1)" width="57.72" height="6.40" rx="1.00"/>
<path fill="#c8c1d5" d="
  M 62.68 160.30
  L 62.59 171.38
  Q 60.89 173.36 60.89 176.01
  Q 60.88 184.13 60.57 192.25
  Q 60.15 203.63 60.03 215.00
  C 59.89 227.96 60.54 244.29 60.32 258.95
  Q 59.36 262.84 58.77 266.71
  Q 58.52 268.27 59.06 270.69
  Q 59.80 274.03 58.53 276.64
  Q 56.28 273.36 56.25 269.50
  Q 56.04 247.92 56.47 230.25
  Q 56.75 218.95 56.62 210.24
  Q 56.18 181.41 56.11 152.33
  Q 56.68 152.73 56.71 152.08
  A 0.52 0.52 0.0 0 1 57.71 151.93
  C 58.53 154.13 59.25 156.05 60.86 157.90
  Q 62.11 159.33 62.68 160.30
  Z"
/>
<path fill="#c0bbbe" d="
  M 293.17 281.46
  Q 285.06 283.81 272.75 283.75
  Q 222.86 283.53 200.75 283.84
  Q 191.53 283.97 187.31 281.30
  Q 188.03 273.37 187.15 267.36
  Q 186.85 265.25 187.69 260.99
  Q 188.40 257.41 188.44 254.69
  Q 188.77 230.27 188.12 205.86
  C 187.98 200.28 189.34 194.72 189.32 189.09
  Q 189.28 180.86 189.75 167.27
  Q 189.81 165.61 190.65 164.98
  A 0.54 0.54 0.0 0 1 191.52 165.40
  L 192.16 188.96
  L 191.99 259.45
  A 1.21 1.20 -0.0 0 0 193.20 260.65
  L 289.25 260.87
  A 1.36 1.36 0.0 0 0 290.61 259.55
  Q 291.46 231.60 290.76 203.91
  C 290.61 197.67 291.21 191.45 290.97 185.25
  Q 290.53 173.89 290.14 162.53
  C 290.12 161.91 289.86 161.68 289.63 161.14
  L 289.59 155.30
  L 289.70 151.77
  Q 289.70 151.75 289.72 151.75
  Q 289.85 151.75 289.98 151.75
  Q 290.08 151.75 290.08 151.84
  Q 290.17 155.67 290.09 159.51
  Q 290.07 160.73 291.32 161.45
  A 1.03 1.02 -80.2 0 1 291.83 162.18
  C 292.50 166.06 293.24 169.60 293.10 173.62
  Q 292.73 183.98 293.25 194.31
  Q 293.25 194.49 293.13 194.62
  Q 293.09 194.65 293.07 194.69
  Q 293.01 194.75 293.02 194.84
  Q 293.64 202.64 293.57 210.45
  C 293.46 223.78 293.86 235.02 293.78 244.00
  C 293.73 249.02 293.08 259.76 295.63 262.29
  Q 296.01 262.66 295.93 263.19
  L 293.17 281.46
  Z"
/>
<path fill="#c0bbbe" d="
  M 482.54 175.00
  L 483.02 154.00
  A 1.01 1.01 0.0 0 1 484.04 153.01
  L 500.72 153.22
  A 1.01 1.01 0.0 0 1 501.72 154.21
  L 502.03 174.28
  A 1.01 1.01 0.0 0 1 501.07 175.30
  L 483.60 176.03
  A 1.01 1.01 0.0 0 1 482.54 175.00
  Z"
/>
<path fill="#c0bbbe" d="
  M 563.25 156.29
  A 0.83 0.83 0.0 0 1 562.42 157.12
  L 523.76 157.19
  A 9.27 0.80 -0.1 0 1 514.49 156.40
  L 514.49 154.06
  A 9.27 0.80 -0.1 0 1 523.76 153.25
  L 562.42 153.18
  A 0.83 0.83 0.0 0 1 563.25 154.01
  L 563.25 156.29
  Z"
/>
<rect fill="#fefeff" x="-7.00" y="-1.39" transform="translate(204.06,155.01) rotate(-0.4)" width="14.00" height="2.78" rx="1.35"/>
<rect fill="#fefeff" x="-7.19" y="-1.15" transform="translate(203.98,159.15) rotate(0.5)" width="14.38" height="2.30" rx="1.11"/>
<path fill="#dfdfe0" d="
  M 451.9815 198.3512
  A 1.25 1.25 0.0 0 1 450.7271 199.5968
  L 400.9274 199.4230
  A 1.25 1.25 0.0 0 1 399.6818 198.1686
  L 399.8185 159.0088
  A 1.25 1.25 0.0 0 1 401.0729 157.7632
  L 450.8726 157.9370
  A 1.25 1.25 0.0 0 1 452.1182 159.1914
  L 451.9815 198.3512
  Z"
/>
<path fill="#39373e" d="
  M 127.70 171.62
  Q 126.19 172.02 125.00 172.04
  Q 94.88 172.42 64.75 172.20
  Q 63.73 172.20 62.72 172.26
  Q 62.29 172.23 62.59 171.38
  L 62.68 160.30
  L 125.78 160.18
  Q 127.15 160.18 127.22 161.55
  L 127.70 171.62
  Z"
/>
<path fill="#fefeff" d="
  M 289.63 161.14
  C 289.86 161.68 290.12 161.91 290.14 162.53
  Q 290.53 173.89 290.97 185.25
  C 291.21 191.45 290.61 197.67 290.76 203.91
  Q 291.46 231.60 290.61 259.55
  A 1.36 1.36 0.0 0 1 289.25 260.87
  L 193.20 260.65
  A 1.21 1.20 -0.0 0 1 191.99 259.45
  L 192.16 188.96
  Q 192.31 177.35 191.86 165.72
  C 191.82 164.64 191.52 163.89 191.26 162.87
  Q 191.14 162.41 191.27 162.13
  Q 191.48 161.70 191.99 161.71
  C 218.51 161.65 244.91 161.37 271.25 161.71
  Q 280.38 161.82 289.63 161.14
  Z"
/>
<g stroke-width="2.00" fill="none" stroke-linecap="butt">
<path stroke="#514f53" vector-effect="non-scaling-stroke" d="
  M 285.52 190.58
  Q 284.24 178.76 284.94 168.59
  A 1.14 1.13 3.1 0 0 283.84 167.37
  Q 270.80 166.95 259.36 167.97"
/>
<path stroke="#8c8b8f" vector-effect="non-scaling-stroke" d="
  M 259.36 167.97
  L 222.90 168.13
  A 0.56 0.56 0.0 0 0 222.34 168.70
  L 222.47 196.16
  Q 222.48 198.33 224.66 198.33
  L 258.56 198.34
  A 0.88 0.87 -88.6 0 0 259.43 197.50
  L 259.79 188.97"
/>
<path stroke="#514f53" vector-effect="non-scaling-stroke" d="
  M 259.79 188.97
  L 260.02 171.87
  A 0.25 0.25 0.0 0 1 260.33 171.63
  L 260.66 171.72
  Q 261.22 171.87 261.21 172.46
  L 260.76 198.88
  A 1.92 1.91 -88.9 0 0 262.63 200.83
  L 281.69 201.24
  A 0.31 0.31 0.0 0 1 281.76 201.85
  Q 281.19 201.99 281.46 202.77"
/>
<path stroke="#514f53" vector-effect="non-scaling-stroke" d="
  M 225.04 202.65
  L 218.67 201.98
  A 0.65 0.65 0.0 0 1 218.74 200.69
  Q 220.58 200.70 221.74 199.29
  A 1.05 1.05 0.0 0 0 221.94 198.39
  Q 220.95 194.44 220.91 192.50
  Q 220.68 180.32 221.24 168.56
  A 1.05 1.05 0.0 0 0 220.19 167.46
  L 200.76 167.44
  A 1.09 1.09 0.0 0 0 199.67 168.61
  Q 200.62 181.66 198.45 194.96"
/>
<path stroke="#a4a3a4" vector-effect="non-scaling-stroke" d="
  M 259.79 188.97
  L 259.36 167.97"
/>
</g>
<path fill="#686668" d="
  M 443.46 179.73
  C 436.04 177.55 437.37 183.85 432.51 185.69
  A 1.00 0.99 -36.0 0 1 431.54 185.54
  Q 430.12 184.42 428.61 182.40
  Q 423.10 175.07 420.72 172.25
  Q 418.49 169.60 414.96 170.07
  Q 414.43 170.14 414.14 170.58
  Q 410.79 175.72 406.65 180.26
  Q 406.31 180.64 406.08 181.10
  L 405.00 183.30
  A 1.06 1.05 -32.2 0 1 403.00 182.85
  L 402.87 161.95
  A 0.19 0.18 90.0 0 1 403.05 161.76
  L 447.43 161.75
  A 1.18 1.18 0.0 0 1 448.61 162.93
  L 448.66 183.37
  A 1.31 1.31 0.0 0 1 446.48 184.35
  Q 444.70 182.77 444.14 180.44
  Q 444.00 179.89 443.46 179.73
  Z"
/>
<rect fill="#c0bbbe" x="-28.69" y="-3.20" transform="translate(846.30,165.28) rotate(0.1)" width="57.38" height="6.40" rx="1.00"/>
<path fill="#c0bbbe" d="
  M 66.38 167.39
  L 65.27 163.17
  A 0.57 0.57 0.0 0 1 65.83 162.46
  L 75.01 162.54
  A 0.57 0.57 0.0 0 1 75.57 163.14
  L 75.24 169.66
  A 0.57 0.57 0.0 0 1 74.65 170.20
  L 66.20 169.86
  A 0.57 0.57 0.0 0 1 65.72 169.03
  L 66.34 167.79
  A 0.57 0.57 0.0 0 0 66.38 167.39
  Z"
/>
<rect fill="#fefeff" x="-22.99" y="-3.77" transform="translate(100.01,166.72) rotate(-0.2)" width="45.98" height="7.54" rx="0.62"/>
<rect fill="#9998a4" x="-23.84" y="-1.39" transform="translate(539.13,164.38) rotate(-0.1)" width="47.68" height="2.78" rx="0.78"/>
<path fill="#c0bbbe" d="
  M 712.54 163.43
  L 684.82 163.37
  L 712.54 163.43
  Z"
/>
<path fill="#dfdfe0" d="
  M 684.82 163.37
  L 712.54 163.43
  L 743.56 163.51
  Q 745.65 163.52 745.65 165.61
  L 745.54 210.66
  A 0.85 0.85 0.0 0 1 744.74 211.51
  C 725.22 212.63 705.26 212.01 685.47 212.04
  A 1.28 1.28 0.0 0 1 684.19 210.80
  Q 683.36 187.95 684.40 164.88
  Q 684.42 164.50 684.82 163.37
  Z"
/>
<path stroke="#514f53" stroke-width="2.00" fill="none" stroke-linecap="butt" vector-effect="non-scaling-stroke" d="
  M 695.19 185.83
  Q 692.90 186.21 691.17 188.60
  A 0.96 0.95 -27.9 0 1 689.44 188.07
  L 688.96 172.48
  A 0.34 0.34 0.0 0 0 688.29 172.45
  L 688.14 173.56"
/>
<path fill="#39373e" d="
  M 285.52 190.58
  Q 284.24 178.76 284.94 168.59
  A 1.14 1.13 3.1 0 0 283.84 167.37
  Q 270.80 166.95 259.36 167.97
  L 222.90 168.13
  A 0.56 0.56 0.0 0 0 222.34 168.70
  L 222.47 196.16
  Q 222.48 198.33 224.66 198.33
  L 258.56 198.34
  A 0.88 0.87 -88.6 0 0 259.43 197.50
  L 259.79 188.97
  L 260.02 171.87
  A 0.25 0.25 0.0 0 1 260.33 171.63
  L 260.66 171.72
  Q 261.22 171.87 261.21 172.46
  L 260.76 198.88
  A 1.92 1.91 -88.9 0 0 262.63 200.83
  L 281.69 201.24
  A 0.31 0.31 0.0 0 1 281.76 201.85
  Q 281.19 201.99 281.46 202.77
  L 225.04 202.65
  L 218.67 201.98
  A 0.65 0.65 0.0 0 1 218.74 200.69
  Q 220.58 200.70 221.74 199.29
  A 1.05 1.05 0.0 0 0 221.94 198.39
  Q 220.95 194.44 220.91 192.50
  Q 220.68 180.32 221.24 168.56
  A 1.05 1.05 0.0 0 0 220.19 167.46
  L 200.76 167.44
  A 1.09 1.09 0.0 0 0 199.67 168.61
  Q 200.62 181.66 198.45 194.96
  L 198.17 166.37
  A 0.72 0.72 0.0 0 1 198.89 165.64
  L 285.12 165.65
  A 0.75 0.75 0.0 0 1 285.87 166.41
  L 285.52 190.58
  Z"
/>
<rect fill="#dfdfe0" x="-4.46" y="-4.46" transform="translate(439.18,170.39) rotate(-1.1)" width="8.92" height="8.92" rx="3.23"/>
<path fill="#686668" d="
  M 285.52 190.58
  Q 286.45 195.70 285.81 202.35
  Q 285.75 202.96 285.15 202.93
  L 281.46 202.77
  Q 281.19 201.99 281.76 201.85
  A 0.31 0.31 0.0 0 0 281.69 201.24
  L 262.63 200.83
  A 1.92 1.91 -88.9 0 1 260.76 198.88
  L 261.21 172.46
  Q 261.22 171.87 260.66 171.72
  L 260.33 171.63
  A 0.25 0.25 0.0 0 0 260.02 171.87
  L 259.79 188.97
  L 259.36 167.97
  Q 270.80 166.95 283.84 167.37
  A 1.14 1.13 3.1 0 1 284.94 168.59
  Q 284.24 178.76 285.52 190.58
  Z"
/>
<path fill="#686668" d="
  M 695.19 185.83
  Q 692.90 186.21 691.17 188.60
  A 0.96 0.95 -27.9 0 1 689.44 188.07
  L 688.96 172.48
  A 0.34 0.34 0.0 0 0 688.29 172.45
  L 688.14 173.56
  L 687.93 168.07
  Q 687.92 167.60 688.39 167.60
  L 740.84 167.47
  A 0.61 0.61 0.0 0 1 741.45 168.08
  L 741.60 193.77
  Q 741.61 195.98 740.10 194.37
  Q 737.62 191.72 733.65 188.60
  C 730.67 186.26 725.58 193.52 724.35 195.46
  A 1.73 1.73 0.0 0 1 721.58 195.67
  C 715.93 189.15 710.77 182.06 704.08 176.77
  A 1.03 1.03 0.0 0 0 702.59 177.00
  Q 698.96 182.44 695.19 185.83
  Z"
/>
<path fill="#686668" d="
  M 225.04 202.65
  L 198.78 203.22
  Q 198.24 203.23 198.16 202.69
  Q 197.48 198.59 198.45 194.96
  Q 200.62 181.66 199.67 168.61
  A 1.09 1.09 0.0 0 1 200.76 167.44
  L 220.19 167.46
  A 1.05 1.05 0.0 0 1 221.24 168.56
  Q 220.68 180.32 220.91 192.50
  Q 220.95 194.44 221.94 198.39
  A 1.05 1.05 0.0 0 1 221.74 199.29
  Q 220.58 200.70 218.74 200.69
  A 0.65 0.65 0.0 0 0 218.67 201.98
  L 225.04 202.65
  Z"
/>
<path fill="#dfdfe0" d="
  M 259.36 167.97
  L 259.79 188.97
  L 259.43 197.50
  A 0.88 0.87 -88.6 0 1 258.56 198.34
  L 224.66 198.33
  Q 222.48 198.33 222.47 196.16
  L 222.34 168.70
  A 0.56 0.56 0.0 0 1 222.90 168.13
  L 259.36 167.97
  Z"
/>
<path fill="#6752a8" d="
  M 321.69 193.49
  C 319.59 188.28 320.69 180.99 320.95 173.50
  Q 320.99 172.10 321.36 171.06
  A 1.01 1.01 0.0 0 1 321.99 170.43
  Q 324.29 169.64 326.59 170.54
  A 1.12 1.11 7.9 0 1 327.29 171.46
  Q 328.25 181.31 327.90 191.08
  C 327.77 194.85 325.79 195.57 322.46 194.26
  A 1.38 1.38 0.0 0 1 321.69 193.49
  Z"
/>
<path fill="#180c58" d="
  M 626.92 194.21
  A 1.52 1.52 0.0 0 1 625.38 192.71
  L 625.18 173.52
  A 3.37 3.25 89.4 0 1 628.39 170.11
  L 628.71 170.11
  A 3.37 3.25 89.4 0 1 632.00 173.44
  L 632.20 192.63
  A 1.52 1.52 0.0 0 1 630.70 194.17
  L 626.92 194.21
  Z"
/>
<rect fill="#fefeff" x="-2.52" y="-11.04" transform="translate(628.56,182.17) rotate(-0.2)" width="5.04" height="22.08" rx="1.71"/>
<path fill="#9998a4" d="
  M 515.04 174.04
  L 515.74 172.31
  A 0.58 0.58 0.0 0 1 516.27 171.95
  L 562.23 171.54
  A 0.58 0.58 0.0 0 1 562.82 172.08
  L 563.01 174.31
  A 0.58 0.58 0.0 0 1 562.43 174.94
  L 515.58 174.83
  A 0.58 0.58 0.0 0 1 515.04 174.04
  Z"
/>
<path fill="#9998a4" d="
  M 62.59 171.38
  Q 62.29 172.23 62.72 172.26
  L 62.45 172.96
  Q 62.26 173.42 62.26 173.91
  L 62.10 263.16
  Q 74.42 263.07 85.00 263.25
  Q 85.19 263.25 85.17 263.56
  Q 85.15 263.77 84.94 263.79
  Q 73.32 264.84 61.69 264.19
  Q 60.30 264.11 60.31 262.72
  L 60.32 258.95
  C 60.54 244.29 59.89 227.96 60.03 215.00
  Q 60.15 203.63 60.57 192.25
  Q 60.88 184.13 60.89 176.01
  Q 60.89 173.36 62.59 171.38
  Z"
/>
<rect fill="#fefeff" x="-1.64" y="-10.52" transform="translate(156.47,182.08) rotate(0.1)" width="3.28" height="21.04" rx="1.60"/>
<rect fill="#fefeff" x="-2.08" y="-10.66" transform="translate(324.09,182.18) rotate(-0.2)" width="4.16" height="21.32" rx="1.12"/>
<path fill="#fefeff" d="
  M 127.70 171.62
  L 128.04 180.73
  L 128.34 235.54
  L 127.99 261.15
  A 1.73 1.73 0.0 0 1 126.27 262.86
  L 62.10 263.16
  L 62.26 173.91
  Q 62.26 173.42 62.45 172.96
  L 62.72 172.26
  Q 63.73 172.20 64.75 172.20
  Q 94.88 172.42 125.00 172.04
  Q 126.19 172.02 127.70 171.62
  Z"
/>
<g stroke-width="2.00" fill="none" stroke-linecap="butt">
<path stroke="#514f53" vector-effect="non-scaling-stroke" d="
  M 121.76 198.42
  L 121.47 203.67
  A 0.42 0.41 -87.7 0 1 121.06 204.06
  L 120.61 204.06
  A 0.34 0.33 88.2 0 1 120.28 203.74
  Q 119.58 192.85 120.17 181.95
  A 1.30 1.30 0.0 0 0 119.01 180.58
  Q 115.55 180.21 115.48 183.24
  Q 115.27 191.67 115.16 200.11
  Q 115.16 200.47 114.82 200.60
  Q 114.68 200.65 114.51 200.63
  Q 114.01 200.54 113.98 200.02
  L 113.82 196.29"
/>
<path stroke="#8c8b8f" vector-effect="non-scaling-stroke" d="
  M 113.82 196.29
  L 113.99 182.51
  A 0.63 0.63 0.0 0 0 113.35 181.87
  L 76.92 182.04"
/>
<path stroke="#514f53" vector-effect="non-scaling-stroke" d="
  M 76.92 182.04
  L 71.64 181.18
  A 1.10 1.10 0.0 0 0 70.41 182.58
  Q 72.24 188.63 71.11 194.97
  C 70.33 199.27 72.15 203.11 71.42 207.43
  Q 71.05 209.61 70.34 211.72
  A 1.86 1.86 0.0 0 0 72.09 214.17
  Q 75.06 214.19 78.30 212.66"
/>
<path stroke="#8c8b8f" vector-effect="non-scaling-stroke" d="
  M 78.30 212.66
  L 113.66 212.76"
/>
<path stroke="#514f53" vector-effect="non-scaling-stroke" d="
  M 113.66 212.76
  Q 115.12 212.12 116.37 214.88
  Q 116.93 216.09 115.40 217.05"
/>
<path stroke="#a4a3a4" vector-effect="non-scaling-stroke" d="
  M 113.66 212.76
  L 113.82 196.29"
/>
<path stroke="#a4a3a4" vector-effect="non-scaling-stroke" d="
  M 76.92 182.04
  Q 76.50 195.69 76.81 209.24
  Q 76.88 212.39 78.30 212.66"
/>
</g>
<path fill="#686668" d="
  M 234.55 176.98
  C 230.76 179.71 229.54 182.71 226.88 186.39
  A 0.82 0.82 0.0 0 1 225.40 185.90
  L 225.63 173.46
  A 1.66 1.66 0.0 0 1 227.28 171.84
  L 255.88 171.73
  A 1.12 1.12 0.0 0 1 257.01 172.88
  L 256.73 186.80
  A 0.96 0.96 0.0 0 1 254.83 187.00
  L 254.25 184.49
  A 0.91 0.91 0.0 0 0 253.68 183.84
  C 250.52 182.70 249.20 184.67 247.44 186.78
  A 2.01 2.00 -44.8 0 1 244.36 186.78
  L 236.41 177.22
  A 1.37 1.37 0.0 0 0 234.55 176.98
  Z"
/>
<path fill="#39373e" d="
  M 695.19 185.83
  L 688.39 194.36
  A 0.25 0.24 -25.8 0 1 687.95 194.21
  L 688.14 173.56
  L 688.29 172.45
  A 0.34 0.34 0.0 0 1 688.96 172.48
  L 689.44 188.07
  A 0.96 0.95 -27.9 0 0 691.17 188.60
  Q 692.90 186.21 695.19 185.83
  Z"
/>
<rect fill="#dfdfe0" x="-5.12" y="-5.39" transform="translate(730.49,177.92) rotate(0.2)" width="10.24" height="10.78" rx="3.42"/>
<rect fill="#dfdfe0" x="-3.26" y="-3.25" transform="translate(250.64,177.35) rotate(-1.1)" width="6.52" height="6.50" rx="1.98"/>
<path fill="#c0bbbe" d="
  M 817.78 174.56
  L 874.84 174.64
  A 0.34 0.34 0.0 0 1 875.17 175.01
  L 874.62 180.69
  A 0.34 0.34 0.0 0 1 874.28 181.00
  L 818.28 180.97
  A 0.34 0.34 0.0 0 1 817.94 180.66
  L 817.44 174.93
  A 0.34 0.34 0.0 0 1 817.78 174.56
  Z"
/>
<path fill="#9998a4" d="
  M 128.34 235.54
  L 128.04 180.73
  L 128.30 175.07
  A 0.23 0.23 0.0 0 1 128.74 174.99
  Q 129.67 177.22 129.13 179.54
  Q 129.00 180.08 129.16 180.61
  Q 129.74 182.46 129.77 183.50
  Q 130.63 214.48 130.37 245.48
  C 130.34 249.22 129.93 252.83 129.52 256.50
  Q 129.44 257.24 128.98 257.70
  Q 128.56 258.11 128.56 257.53
  L 128.34 235.54
  Z"
/>
<path fill="#39373e" d="
  M 121.76 198.42
  L 121.47 203.67
  A 0.42 0.41 -87.7 0 1 121.06 204.06
  L 120.61 204.06
  A 0.34 0.33 88.2 0 1 120.28 203.74
  Q 119.58 192.85 120.17 181.95
  A 1.30 1.30 0.0 0 0 119.01 180.58
  Q 115.55 180.21 115.48 183.24
  Q 115.27 191.67 115.16 200.11
  Q 115.16 200.47 114.82 200.60
  Q 114.68 200.65 114.51 200.63
  Q 114.01 200.54 113.98 200.02
  L 113.82 196.29
  L 113.99 182.51
  A 0.63 0.63 0.0 0 0 113.35 181.87
  L 76.92 182.04
  L 71.64 181.18
  A 1.10 1.10 0.0 0 0 70.41 182.58
  Q 72.24 188.63 71.11 194.97
  C 70.33 199.27 72.15 203.11 71.42 207.43
  Q 71.05 209.61 70.34 211.72
  A 1.86 1.86 0.0 0 0 72.09 214.17
  Q 75.06 214.19 78.30 212.66
  L 113.66 212.76
  Q 115.12 212.12 116.37 214.88
  Q 116.93 216.09 115.40 217.05
  L 68.95 216.98
  A 0.43 0.43 0.0 0 1 68.52 216.54
  L 68.84 178.77
  A 0.39 0.39 0.0 0 1 69.23 178.38
  L 121.52 178.37
  Q 121.94 178.37 121.93 178.79
  L 121.76 198.42
  Z"
/>
<path fill="#686668" d="
  M 121.76 198.42
  L 121.90 216.81
  Q 121.90 217.45 121.26 217.41
  L 115.40 217.05
  Q 116.93 216.09 116.37 214.88
  Q 115.12 212.12 113.66 212.76
  L 113.82 196.29
  L 113.98 200.02
  Q 114.01 200.54 114.51 200.63
  Q 114.68 200.65 114.82 200.60
  Q 115.16 200.47 115.16 200.11
  Q 115.27 191.67 115.48 183.24
  Q 115.55 180.21 119.01 180.58
  A 1.30 1.30 0.0 0 1 120.17 181.95
  Q 119.58 192.85 120.28 203.74
  A 0.34 0.33 88.2 0 0 120.61 204.06
  L 121.06 204.06
  A 0.42 0.41 -87.7 0 0 121.47 203.67
  L 121.76 198.42
  Z"
/>
<path fill="#686668" d="
  M 76.92 182.04
  Q 76.50 195.69 76.81 209.24
  Q 76.88 212.39 78.30 212.66
  Q 75.06 214.19 72.09 214.17
  A 1.86 1.86 0.0 0 1 70.34 211.72
  Q 71.05 209.61 71.42 207.43
  C 72.15 203.11 70.33 199.27 71.11 194.97
  Q 72.24 188.63 70.41 182.58
  A 1.10 1.10 0.0 0 1 71.64 181.18
  L 76.92 182.04
  Z"
/>
<path fill="#dfdfe0" d="
  M 113.82 196.29
  L 113.66 212.76
  L 78.30 212.66
  Q 76.88 212.39 76.81 209.24
  Q 76.50 195.69 76.92 182.04
  L 113.35 181.87
  A 0.63 0.63 0.0 0 1 113.99 182.51
  L 113.82 196.29
  Z"
/>
<rect fill="#9998a4" x="-40.21" y="-1.24" transform="translate(523.05,185.88) rotate(0.1)" width="80.42" height="2.48" rx="0.82"/>
<path fill="#4f484d" d="
  M 110.30 202.16
  C 108.69 199.48 108.42 196.71 104.20 197.97
  C 102.61 198.45 102.03 199.95 101.19 201.25
  A 1.29 1.28 40.1 0 1 99.16 201.42
  L 89.97 191.35
  A 1.51 1.50 47.0 0 0 87.84 191.27
  Q 83.45 195.42 80.78 200.76
  A 0.60 0.59 -31.9 0 1 79.65 200.50
  L 79.73 188.64
  Q 79.74 188.25 79.54 187.90
  L 79.11 187.14
  Q 78.73 186.46 79.51 186.45
  L 109.04 186.11
  Q 110.74 186.09 110.74 187.79
  L 110.76 202.03
  Q 110.76 202.93 110.30 202.16
  Z"
/>
<path fill="#dfdfe0" d="
  M 107.88 194.45
  A 0.61 0.60 89.5 0 1 107.30 195.05
  L 102.37 195.28
  A 0.75 0.74 78.4 0 1 101.65 194.80
  C 100.04 190.72 102.77 187.05 107.36 188.42
  Q 107.94 188.59 107.93 189.20
  L 107.88 194.45
  Z"
/>
<rect fill="#c0bbbe" x="772.61" y="188.56" width="102.42" height="6.50" rx="0.61"/>
<path fill="#9998a4" d="
  M 505.10 194.48
  C 499.10 194.59 491.22 194.24 484.23 194.61
  A 0.62 0.62 0.0 0 1 483.58 194.01
  L 483.54 192.29
  Q 483.52 191.75 484.06 191.76
  L 562.12 191.85
  A 0.57 0.57 0.0 0 1 562.69 192.50
  L 562.27 195.20
  A 0.46 0.45 32.4 0 1 561.44 195.38
  Q 560.65 194.20 558.50 194.18
  Q 531.80 194.00 505.10 194.48
  Z"
/>
<path fill="#9998a4" d="
  M 560.04 199.86
  L 510.77 199.95
  Q 510.37 199.95 510.25 200.33
  L 510.13 200.68
  A 0.36 0.36 0.0 0 0 510.47 201.15
  L 535.80 201.38
  Q 510.27 201.55 484.75 201.67
  Q 483.48 201.68 483.28 200.59
  A 0.97 0.97 0.0 0 1 484.23 199.45
  L 560.04 199.86
  Z"
/>
<path fill="#686668" d="
  M 535.80 201.38
  L 510.47 201.15
  A 0.36 0.36 0.0 0 1 510.13 200.68
  L 510.25 200.33
  Q 510.37 199.95 510.77 199.95
  L 560.04 199.86
  Q 561.26 199.01 562.24 199.45
  A 0.98 0.98 0.0 0 1 561.84 201.33
  L 535.80 201.38
  Z"
/>
<path fill="#c0bbbe" d="
  M 873.91 206.34
  L 773.84 206.06
  Q 772.61 206.06 772.62 204.84
  L 772.62 200.61
  A 0.67 0.66 90.0 0 1 773.28 199.94
  C 806.85 199.88 840.63 200.77 874.14 199.41
  A 0.81 0.81 0.0 0 1 874.98 200.26
  L 874.69 205.60
  A 0.78 0.78 0.0 0 1 873.91 206.34
  Z"
/>
<path fill="#6752a8" d="
  M 327.33 209.24
  L 327.52 209.56
  Q 327.60 209.70 327.61 209.87
  Q 327.99 216.24 327.66 222.61
  Q 327.57 224.23 326.42 230.80
  Q 325.70 234.92 325.91 239.15
  C 326.00 241.01 326.98 242.28 327.20 244.10
  Q 328.38 253.44 327.54 262.81
  C 327.21 266.52 325.89 268.37 321.86 266.49
  Q 321.45 266.30 321.29 265.87
  Q 320.64 264.03 320.65 261.24
  Q 320.68 253.16 321.11 245.08
  C 321.20 243.51 321.82 241.83 323.58 241.96
  A 1.39 1.38 2.5 0 0 325.07 240.60
  L 325.24 231.41
  A 0.77 0.77 0.0 0 0 324.76 230.68
  L 322.20 229.61
  A 0.75 0.71 1.9 0 1 321.82 229.23
  Q 320.84 226.88 320.82 224.00
  Q 320.74 214.05 320.81 208.81
  C 320.88 204.04 327.03 205.24 327.13 208.56
  Q 327.14 208.93 327.33 209.24
  Z"
/>
<path fill="#180c58" d="
  M 631.6007 226.1615
  A 3.17 3.17 0.0 0 1 628.4197 229.3204
  L 628.1597 229.3195
  A 3.17 3.17 0.0 0 1 625.0008 226.1384
  L 625.0593 209.3785
  A 3.17 3.17 0.0 0 1 628.2403 206.2196
  L 628.5003 206.2205
  A 3.17 3.17 0.0 0 1 631.6592 209.4016
  L 631.6007 226.1615
  Z"
/>
<rect fill="#fefeff" x="-2.48" y="-11.03" transform="translate(628.38,218.02) rotate(0.2)" width="4.96" height="22.06" rx="2.41"/>
<path fill="#c0bbbe" d="
  M 284.38 225.97
  C 272.61 225.71 260.96 225.91 249.25 225.71
  C 232.23 225.43 215.74 226.24 198.98 226.69
  A 0.98 0.97 -0.9 0 1 197.98 225.73
  L 197.78 209.03
  Q 197.76 208.05 198.75 208.02
  Q 241.70 206.82 284.64 208.11
  A 1.04 1.04 0.0 0 1 285.65 209.13
  L 285.96 224.38
  A 1.55 1.55 0.0 0 1 284.38 225.97
  Z"
/>
<rect fill="#fefeff" x="-2.09" y="-10.81" transform="translate(324.07,218.13) rotate(0.1)" width="4.18" height="21.62" rx="1.80"/>
<rect fill="#fefeff" x="154.75" y="207.59" width="3.30" height="20.96" rx="1.61"/>
<path fill="#c0bbbe" d="
  M 773.85 210.64
  L 873.40 210.51
  A 1.46 1.46 0.0 0 1 874.86 212.08
  L 874.58 215.91
  A 1.46 1.46 0.0 0 1 873.12 217.27
  L 773.73 217.04
  A 1.46 1.46 0.0 0 1 772.27 215.53
  L 772.39 212.05
  A 1.46 1.46 0.0 0 1 773.85 210.64
  Z"
/>
<rect fill="#c0bbbe" x="-51.06" y="-3.09" transform="translate(823.73,224.34) rotate(-0.1)" width="102.12" height="6.18" rx="1.59"/>
<path fill="#c0bbbe" d="
  M 71.33 225.75
  L 81.70 225.15
  Q 82.26 225.12 82.17 225.68
  Q 81.26 231.21 82.24 236.70
  A 0.75 0.75 0.0 0 1 81.53 237.57
  L 71.70 237.84
  A 0.67 0.66 -1.7 0 1 71.01 237.20
  L 70.70 226.43
  A 0.66 0.66 0.0 0 1 71.33 225.75
  Z"
/>
<rect fill="#9998a4" x="-16.10" y="-0.88" transform="translate(103.99,226.24) rotate(-0.1)" width="32.20" height="1.76" rx="0.86"/>
<path fill="#c8c1d5" d="
  M 284.62 232.13
  L 198.78 232.68
  A 0.66 0.65 0.0 0 1 198.12 232.03
  L 198.12 231.21
  Q 198.12 230.57 198.77 230.59
  Q 209.22 230.85 217.13 230.42
  Q 220.91 230.22 224.33 230.59
  C 232.75 231.49 241.28 231.10 249.74 231.09
  C 252.53 231.08 258.40 230.47 262.77 230.94
  Q 266.19 231.30 268.74 231.16
  Q 274.73 230.85 280.72 231.18
  C 282.00 231.26 283.52 230.49 284.83 231.01
  A 0.58 0.58 0.0 0 1 284.62 232.13
  Z"
/>
<rect fill="#9998a4" x="-15.85" y="-0.91" transform="translate(104.17,231.83) rotate(-0.1)" width="31.70" height="1.82" rx="0.73"/>
<rect fill="#9998a4" x="-15.65" y="-0.75" transform="translate(104.29,237.20) rotate(-0.2)" width="31.30" height="1.50" rx="0.29"/>
<path fill="#c0bbbe" d="
  M 257.16 240.53
  C 241.07 240.36 225.00 240.76 208.92 240.62
  C 205.87 240.60 201.81 241.35 198.04 240.77
  Q 197.50 240.69 197.60 240.16
  Q 197.85 238.86 199.51 238.86
  Q 231.00 238.79 262.23 238.89
  Q 267.83 238.91 262.52 240.69
  Q 262.06 240.84 259.84 240.66
  Q 258.28 240.54 257.16 240.53
  Z"
/>
<rect fill="#c0bbbe" x="-8.70" y="-0.68" transform="translate(276.25,239.71) rotate(-0.3)" width="17.40" height="1.36" rx="0.61"/>
<path fill="#c0bbbe" d="
  M 87.38 242.08
  Q 103.33 241.72 119.35 241.29
  Q 119.88 241.27 119.90 241.80
  L 120.22 252.98
  Q 120.27 254.48 118.76 254.47
  L 71.21 254.09
  A 0.88 0.87 0.3 0 1 70.34 253.22
  L 70.24 243.06
  A 1.43 1.43 0.0 0 1 71.79 241.63
  Q 79.51 242.26 87.38 242.08
  Z"
/>
<path fill="#6752a8" d="
  M 630.68 245.30
  Q 630.49 244.13 629.96 243.44
  C 628.77 241.87 626.78 242.84 626.59 244.75
  Q 625.56 255.42 626.24 264.97
  Q 626.56 265.35 626.26 265.73
  A 0.51 0.50 -28.7 0 1 625.36 265.47
  Q 624.55 257.43 625.06 249.12
  C 625.20 246.91 625.10 244.82 626.20 242.88
  A 2.73 2.73 0.0 0 1 629.72 241.74
  C 631.15 242.40 631.79 244.03 631.85 245.67
  Q 632.05 250.80 631.75 255.94
  Q 631.73 256.34 631.53 256.48
  Q 631.40 256.58 631.23 256.59
  Q 630.86 256.60 630.85 256.23
  L 630.68 245.30
  Z"
/>
<rect fill="#fefeff" x="-2.18" y="-11.22" transform="translate(324.05,254.08) rotate(0.7)" width="4.36" height="22.44" rx="1.97"/>
<path fill="#fefeff" d="
  M 630.68 245.30
  Q 630.89 254.25 630.65 263.25
  Q 630.57 266.09 626.24 264.97
  Q 625.56 255.42 626.59 244.75
  C 626.78 242.84 628.77 241.87 629.96 243.44
  Q 630.49 244.13 630.68 245.30
  Z"
/>
<rect fill="#fefeff" x="-1.57" y="-10.74" transform="translate(156.44,254.27) rotate(0.2)" width="3.14" height="21.48" rx="1.53"/>
<path fill="#6752a8" d="
  M 356.13 246.10
  Q 364.12 264.28 382.24 266.98
  Q 385.52 267.47 394.58 267.76
  C 409.49 268.25 424.48 267.71 439.46 267.95
  A 0.69 0.68 -89.6 0 1 440.13 268.64
  Q 440.13 269.10 439.77 269.75
  Q 435.25 277.98 430.57 286.10
  C 427.12 292.08 422.96 295.10 416.74 297.25
  L 416.05 297.21
  A 0.54 0.54 0.0 0 1 415.86 296.17
  C 420.92 293.95 425.16 291.68 428.44 287.17
  Q 432.93 280.99 434.99 273.52
  Q 435.11 273.08 435.40 272.72
  Q 436.09 271.85 435.74 271.36
  A 3.31 3.28 -16.5 0 0 433.21 270.00
  Q 410.01 269.12 386.51 268.58
  Q 361.96 268.02 356.13 246.10
  Z"
/>
<rect fill="#c0bbbe" x="197.66" y="246.98" width="66.46" height="1.54" rx="0.75"/>
<rect fill="#c8c1d5" x="-9.18" y="-0.61" transform="translate(276.20,247.68) rotate(-0.1)" width="18.36" height="1.22" rx="0.58"/>
<path fill="#c8c1d5" d="
  M 197.88 254.72
  Q 230.34 254.56 262.75 255.15
  Q 264.42 255.19 266.10 255.35
  Q 266.25 255.36 266.25 255.50
  Q 266.25 255.63 266.25 255.77
  Q 266.25 255.96 266.06 255.96
  Q 232.16 256.21 198.25 256.11
  Q 197.34 256.10 197.33 255.27
  A 0.55 0.55 0.0 0 1 197.88 254.72
  Z"
/>
<path fill="#6752a8" d="
  M 650.19 261.70
  Q 655.66 272.32 667.47 273.06
  L 680.40 273.90
  Q 667.78 276.72 657.53 271.72
  Q 650.93 268.51 650.19 261.70
  Z"
/>
<path fill="#896cfa" d="
  M 238.21 266.66
  L 244.59 266.78
  A 1.80 1.80 0.0 0 1 246.35 268.54
  L 246.46 274.06
  A 1.80 1.80 0.0 0 1 244.67 275.90
  L 238.01 275.95
  A 1.80 1.80 0.0 0 1 236.20 274.10
  L 236.38 268.40
  A 1.80 1.80 0.0 0 1 238.21 266.66
  Z"
/>
<path fill="#896cfa" d="
  M 91.42 266.69
  L 99.42 266.76
  A 1.67 1.67 0.0 0 1 101.08 268.37
  L 101.34 276.10
  A 1.67 1.67 0.0 0 1 99.78 277.82
  L 91.24 278.36
  A 1.67 1.67 0.0 0 1 89.47 276.64
  L 89.74 268.31
  A 1.67 1.67 0.0 0 1 91.42 266.69
  Z"
/>
<path fill="#896cfa" d="
  M 462.24 267.80
  C 472.35 267.21 483.04 267.86 492.90 267.95
  A 3.48 3.48 0.0 0 1 495.99 269.86
  L 508.26 293.90
  A 1.45 1.44 -13.5 0 1 506.97 296.00
  L 448.74 295.93
  A 1.89 1.89 0.0 0 1 447.02 293.26
  Q 452.75 280.64 458.30 269.82
  Q 459.26 267.97 462.24 267.80
  Z"
/>
<path fill="#6752a8" d="
  M 320.88 280.38
  C 321.08 277.11 327.76 276.40 327.76 280.99
  Q 327.78 291.12 326.57 300.34
  A 2.13 2.13 0.0 0 1 323.76 302.08
  C 322.09 301.51 321.21 300.13 321.09 298.30
  Q 320.38 288.11 320.88 280.38
  Z"
/>
<path fill="#180c58" d="
  M 632.1863 298.5823
  A 2.73 2.73 0.0 0 1 629.4707 301.3265
  L 628.2107 301.3331
  A 2.73 2.73 0.0 0 1 625.4664 298.6175
  L 625.3737 280.8977
  A 2.73 2.73 0.0 0 1 628.0893 278.1535
  L 629.3493 278.1469
  A 2.73 2.73 0.0 0 1 632.0936 280.8625
  L 632.1863 298.5823
  Z"
/>
<rect fill="#fefeff" x="-2.44" y="-10.93" transform="translate(628.57,289.94) rotate(-0.2)" width="4.88" height="21.86" rx="1.87"/>
<rect fill="#fefeff" x="-2.16" y="-10.60" transform="translate(324.07,290.07) rotate(0.5)" width="4.32" height="21.20" rx="1.33"/>
<rect fill="#fefeff" x="-1.64" y="-10.19" transform="translate(156.45,290.24) rotate(-0.4)" width="3.28" height="20.38" rx="1.59"/>
<path fill="#6752a8" d="
  M 321.20 326.84
  C 321.47 323.88 320.39 320.22 324.42 319.04
  A 2.14 2.13 77.5 0 1 327.13 320.77
  C 327.79 325.05 329.39 341.97 326.02 344.93
  A 1.90 1.90 0.0 0 1 323.24 344.64
  C 319.99 340.32 320.73 331.95 321.20 326.84
  Z"
/>
<path fill="#180c58" d="
  M 625.78 322.89
  Q 626.16 319.55 630.06 320.02
  A 1.90 1.89 -89.1 0 1 631.71 321.73
  Q 632.65 331.99 631.78 342.27
  A 1.35 1.35 0.0 0 1 630.73 343.48
  Q 625.57 344.67 625.29 339.50
  Q 624.84 331.17 625.78 322.89
  Z"
/>
<rect fill="#fefeff" x="-2.12" y="-11.30" transform="translate(324.21,331.72) rotate(-0.1)" width="4.24" height="22.60" rx="2.05"/>
<rect fill="#fefeff" x="-2.40" y="-10.89" transform="translate(628.52,331.76) rotate(-0.1)" width="4.80" height="21.78" rx="1.77"/>
<rect fill="#fefeff" x="-1.65" y="-10.39" transform="translate(156.42,331.56) rotate(0.1)" width="3.30" height="20.78" rx="1.60"/>
</svg>
